<svg width="1947" height="1540" viewBox="0 0 1947 1540" fill="none" xmlns="http://www.w3.org/2000/svg">
<mask id="mask0_1360_167" style="mask-type:alpha" maskUnits="userSpaceOnUse" x="0" y="0" width="1947" height="1540">
<rect width="1947" height="1540" fill="#0E0F28"/>
</mask>
<g mask="url(#mask0_1360_167)">
<rect x="-1.01709" width="1947" height="1540" fill="#0E0F28"/>
<g filter="url(#filter0_d_1360_167)">
<path d="M223.142 118.127C247.157 -75.1084 98.6994 -76.7068 -3.19433 -58.8734C-89.8294 527.46 -211.118 1693.53 -3.19433 1667.13C256.711 1634.13 325.517 1422.6 325.517 1246.98C325.517 1087.48 617.323 1061.63 617.323 884.626C617.323 707.626 401.81 694.978 234.983 526.978C127.205 418.442 195.819 337.979 223.142 118.127Z" fill="#F59CBA"/>
</g>
<g filter="url(#filter1_d_1360_167)">
<path d="M146.483 70.7041C123.086 -37.7967 45.9456 -20.2961 -1.01709 -10.7961V1582.7C54.7616 1546.2 165.505 1449.8 162.25 1356.2C158.181 1239.2 235.522 1085.48 374.345 1009.2C525.405 926.204 506.756 837.704 418.595 797.704C188.19 706.704 133.095 548.281 123.086 510.704C80.8708 352.204 161.038 138.204 146.483 70.7041Z" fill="#F6B5CB"/>
</g>
<g filter="url(#filter2_d_1360_167)">
<path d="M61.0346 170.708C96.1918 47.7041 28.9915 42.5371 -1.01709 47.7038V1472.71C36.7904 1458.71 107.116 1408.01 85.957 1317.21C59.5088 1203.71 141.397 1075.2 214.129 1029.2C260.923 999.609 381.974 837.204 156.655 751.708C0.123907 692.312 48.4596 214.704 61.0346 170.708Z" fill="#FFCFDF"/>
</g>
<g filter="url(#filter3_d_1360_167)">
<path d="M641.686 360C506.19 239.6 628.293 69.8333 706.281 0H1609.59H1880.18H1946.3C2036.32 523.833 2162.36 1565.2 1946.3 1540C1676.22 1508.5 1491.59 1373.5 1370.54 1215C1249.49 1056.5 1443.27 645 1491.59 546C1539.91 447 1620.27 265 1443.27 225.5C1301.67 193.9 1072.66 328.333 975.85 399.5C920.919 436.5 777.183 480.4 641.686 360Z" fill="#F59CBA"/>
</g>
<g filter="url(#filter4_d_1360_167)">
<path d="M675.255 257C645.958 182.2 761.72 55.1667 823.263 1H1941.21C1927.48 411.5 2017.19 1249.5 1974.98 1318.5C1935.29 1383.36 1815.92 1393.5 1732.68 1388.5C1583.14 1378.17 1322.02 1274.8 1473.79 944C1663.5 530.5 1627.9 376.5 1620.27 314C1612.64 251.5 1548.56 178 1376.64 141.5C1204.73 105 1101.99 274 893.962 333C869.188 340.026 711.875 350.5 675.255 257Z" fill="#F6B5CB"/>
</g>
<g filter="url(#filter5_d_1360_167)">
<path d="M840.048 226.521C703.738 214.921 827.333 72.3548 906.169 2.52148L1945.28 0.0214844L1968.87 1136C1980.23 1176.5 1954.03 1269.72 1803.88 1316.52C1616.2 1375.02 1680.29 1207.52 1564.83 1205.52C1449.38 1203.52 1505.32 893.021 1658.93 675.021C1812.53 457.021 1669.61 319.021 1630.95 151.021C1600.03 16.6215 1294.25 28.2398 1197.61 102.021C1130.81 153.021 976.358 238.121 840.048 226.521Z" fill="#FFCFDF"/>
</g>
</g>
<defs>
<filter id="filter0_d_1360_167" x="-218" y="-162" width="935.323" height="1933.57" filterUnits="userSpaceOnUse" color-interpolation-filters="sRGB">
<feFlood flood-opacity="0" result="BackgroundImageFix"/>
<feColorMatrix in="SourceAlpha" type="matrix" values="0 0 0 0 0 0 0 0 0 0 0 0 0 0 0 0 0 0 127 0" result="hardAlpha"/>
<feOffset dy="4"/>
<feGaussianBlur stdDeviation="50"/>
<feComposite in2="hardAlpha" operator="out"/>
<feColorMatrix type="matrix" values="0 0 0 0 0 0 0 0 0 0 0 0 0 0 0 0 0 0 1 0"/>
<feBlend mode="normal" in2="BackgroundImageFix" result="effect1_dropShadow_1360_167"/>
<feBlend mode="normal" in="SourceGraphic" in2="effect1_dropShadow_1360_167" result="shape"/>
</filter>
<filter id="filter1_d_1360_167" x="-101.017" y="-114" width="687.454" height="1800.7" filterUnits="userSpaceOnUse" color-interpolation-filters="sRGB">
<feFlood flood-opacity="0" result="BackgroundImageFix"/>
<feColorMatrix in="SourceAlpha" type="matrix" values="0 0 0 0 0 0 0 0 0 0 0 0 0 0 0 0 0 0 127 0" result="hardAlpha"/>
<feOffset dy="4"/>
<feGaussianBlur stdDeviation="50"/>
<feComposite in2="hardAlpha" operator="out"/>
<feColorMatrix type="matrix" values="0 0 0 0 0 0 0 0 0 0 0 0 0 0 0 0 0 0 0.25 0"/>
<feBlend mode="normal" in2="BackgroundImageFix" result="effect1_dropShadow_1360_167"/>
<feBlend mode="normal" in="SourceGraphic" in2="effect1_dropShadow_1360_167" result="shape"/>
</filter>
<filter id="filter2_d_1360_167" x="-101.017" y="-49.5645" width="489.77" height="1626.27" filterUnits="userSpaceOnUse" color-interpolation-filters="sRGB">
<feFlood flood-opacity="0" result="BackgroundImageFix"/>
<feColorMatrix in="SourceAlpha" type="matrix" values="0 0 0 0 0 0 0 0 0 0 0 0 0 0 0 0 0 0 127 0" result="hardAlpha"/>
<feOffset dy="4"/>
<feGaussianBlur stdDeviation="50"/>
<feComposite in2="hardAlpha" operator="out"/>
<feColorMatrix type="matrix" values="0 0 0 0 0 0 0 0 0 0 0 0 0 0 0 0 0 0 0.25 0"/>
<feBlend mode="normal" in2="BackgroundImageFix" result="effect1_dropShadow_1360_167"/>
<feBlend mode="normal" in="SourceGraphic" in2="effect1_dropShadow_1360_167" result="shape"/>
</filter>
<filter id="filter3_d_1360_167" x="480.847" y="-96" width="1684.75" height="1740.45" filterUnits="userSpaceOnUse" color-interpolation-filters="sRGB">
<feFlood flood-opacity="0" result="BackgroundImageFix"/>
<feColorMatrix in="SourceAlpha" type="matrix" values="0 0 0 0 0 0 0 0 0 0 0 0 0 0 0 0 0 0 127 0" result="hardAlpha"/>
<feOffset dy="4"/>
<feGaussianBlur stdDeviation="50"/>
<feComposite in2="hardAlpha" operator="out"/>
<feColorMatrix type="matrix" values="0 0 0 0 0 0 0 0 0 0 0 0 0 0 0 0 0 0 1 0"/>
<feBlend mode="normal" in2="BackgroundImageFix" result="effect1_dropShadow_1360_167"/>
<feBlend mode="normal" in="SourceGraphic" in2="effect1_dropShadow_1360_167" result="shape"/>
</filter>
<filter id="filter4_d_1360_167" x="570.587" y="-95" width="1515.78" height="1588.6" filterUnits="userSpaceOnUse" color-interpolation-filters="sRGB">
<feFlood flood-opacity="0" result="BackgroundImageFix"/>
<feColorMatrix in="SourceAlpha" type="matrix" values="0 0 0 0 0 0 0 0 0 0 0 0 0 0 0 0 0 0 127 0" result="hardAlpha"/>
<feOffset dy="4"/>
<feGaussianBlur stdDeviation="50"/>
<feComposite in2="hardAlpha" operator="out"/>
<feColorMatrix type="matrix" values="0 0 0 0 0 0 0 0 0 0 0 0 0 0 0 0 0 0 0.25 0"/>
<feBlend mode="normal" in2="BackgroundImageFix" result="effect1_dropShadow_1360_167"/>
<feBlend mode="normal" in="SourceGraphic" in2="effect1_dropShadow_1360_167" result="shape"/>
</filter>
<filter id="filter5_d_1360_167" x="679.043" y="-95.9785" width="1392.17" height="1528.89" filterUnits="userSpaceOnUse" color-interpolation-filters="sRGB">
<feFlood flood-opacity="0" result="BackgroundImageFix"/>
<feColorMatrix in="SourceAlpha" type="matrix" values="0 0 0 0 0 0 0 0 0 0 0 0 0 0 0 0 0 0 127 0" result="hardAlpha"/>
<feOffset dy="4"/>
<feGaussianBlur stdDeviation="50"/>
<feComposite in2="hardAlpha" operator="out"/>
<feColorMatrix type="matrix" values="0 0 0 0 0 0 0 0 0 0 0 0 0 0 0 0 0 0 0.25 0"/>
<feBlend mode="normal" in2="BackgroundImageFix" result="effect1_dropShadow_1360_167"/>
<feBlend mode="normal" in="SourceGraphic" in2="effect1_dropShadow_1360_167" result="shape"/>
</filter>
</defs>
</svg>
