<svg width="463" height="450" viewBox="0 0 463 450" fill="none" xmlns="http://www.w3.org/2000/svg">
<g filter="url(#filter0_d_1360_191)">
<path fill-rule="evenodd" clip-rule="evenodd" d="M362.74 174.638L178.639 96.4922L100.493 280.593L252.376 345.064L298.213 326.655L298.213 326.655L298.136 326.465L298.269 326.522L362.74 174.638Z" fill="#BFE0FE"/>
<path fill-rule="evenodd" clip-rule="evenodd" d="M298.27 326.522L252.433 344.931L266.052 312.847L298.27 326.522ZM252.51 345.121L252.376 345.064L252.433 344.931L252.51 345.121Z" fill="#AC94F1"/>
<path d="M222.511 161.121C226.157 162.668 228.336 161.833 229.344 159.458C230 157.912 229.669 156.337 228.171 155.158C229.597 155.177 230.718 154.327 231.281 153.002C232.133 150.995 231.303 148.905 228.063 147.529L223.424 145.56C223.277 145.498 223.145 145.551 223.083 145.698L217.55 158.732C217.488 158.879 217.541 159.011 217.688 159.073L222.511 161.121ZM224.685 148.833L226.986 149.81C228.404 150.412 228.998 151.316 228.568 152.328C228.131 153.359 227.076 153.541 225.658 152.94L223.357 151.963L224.685 148.833ZM222.403 154.209L225.054 155.334C226.711 156.038 227.337 157.02 226.86 158.143C226.376 159.285 225.227 159.535 223.57 158.832L220.919 157.707L222.403 154.209ZM239.072 168.15C239.219 168.213 239.35 168.16 239.413 168.012L240.202 166.153C240.265 166.006 240.212 165.875 240.065 165.812L233.547 163.046L235.016 159.585L240.705 161.999C240.852 162.062 240.984 162.009 241.046 161.862L241.82 160.039C241.882 159.892 241.829 159.761 241.682 159.698L235.993 157.283L237.298 154.209L243.595 156.881C243.742 156.944 243.873 156.891 243.936 156.744L244.725 154.884C244.787 154.737 244.734 154.606 244.587 154.543L236.045 150.917C235.898 150.855 235.766 150.908 235.704 151.055L230.171 164.09C230.109 164.237 230.162 164.368 230.309 164.43L239.072 168.15ZM262.405 165.127L263.866 161.684C263.929 161.537 263.894 161.414 263.71 161.335L261.832 160.538C261.685 160.476 261.572 160.537 261.51 160.684L257.814 169.392C257.751 169.539 257.794 169.644 257.941 169.707L259.819 170.504C260.003 170.582 260.108 170.539 260.17 170.392L261.522 167.207L263.86 168.2C264.044 168.278 264.157 168.217 264.219 168.07L264.899 166.468C264.962 166.321 264.927 166.197 264.743 166.119L262.405 165.127ZM259.128 160.716C259.191 160.568 259.175 160.453 259.009 160.383L257.168 159.601C257.002 159.531 256.908 159.599 256.845 159.747L256.111 161.477L252.429 159.914L253.163 158.184C253.226 158.037 253.191 157.913 253.026 157.843L251.203 157.069C251.019 156.991 250.906 157.052 250.844 157.199L247.819 164.324C247.757 164.471 247.791 164.594 247.976 164.673L255.781 167.986C255.947 168.056 256.041 167.988 256.104 167.84L259.128 160.716ZM251.624 161.811L255.306 163.374L254.563 165.122L250.881 163.56L251.624 161.811ZM249.113 166.959C248.947 166.888 248.834 166.949 248.772 167.096L248.1 168.68C248.037 168.827 248.072 168.95 248.237 169.021L256.485 172.522L254.766 176.572C254.711 176.701 254.746 176.824 254.912 176.894L256.789 177.691C256.955 177.762 257.068 177.701 257.122 177.572L259.615 171.699C259.678 171.552 259.643 171.429 259.478 171.358L249.113 166.959ZM278.895 167.781C278.73 167.711 278.617 167.771 278.554 167.919L271.881 183.641C271.818 183.788 271.86 183.893 272.026 183.963L273.886 184.753C274.07 184.831 274.175 184.788 274.237 184.641L280.911 168.919C280.973 168.772 280.939 168.648 280.755 168.57L278.895 167.781ZM274.549 174.692C274.586 174.556 274.559 174.414 274.359 174.373C273.749 174.222 273.139 174.072 272.501 173.888C273.439 172.548 274.462 170.701 275.093 169.317L275.848 167.639C275.911 167.492 275.876 167.369 275.711 167.298L267.942 164.001C267.776 163.93 267.663 163.991 267.601 164.138L266.952 165.666C266.89 165.814 266.924 165.937 267.09 166.007L272.723 168.399L272.59 168.711C272.145 169.761 271.091 171.682 270.048 173.064C269.048 172.705 267.991 172.278 266.85 171.793L263.665 170.442C263.499 170.371 263.394 170.414 263.332 170.561L262.675 172.107C262.621 172.236 262.655 172.359 262.821 172.43L266.466 173.977L266.761 174.102L264.291 179.92C264.229 180.067 264.271 180.172 264.418 180.234L266.278 181.024C266.444 181.094 266.548 181.052 266.611 180.904L269.104 175.032C270.792 175.661 272.29 176.123 273.77 176.426C273.951 176.459 274.067 176.443 274.111 176.288L274.549 174.692ZM292.111 181.169L291.572 182.439C291.509 182.587 291.544 182.71 291.709 182.78L293.569 183.57C293.753 183.648 293.866 183.587 293.928 183.44L297.163 175.818C297.226 175.671 297.191 175.547 297.007 175.469L295.148 174.68C294.982 174.609 294.869 174.67 294.807 174.818L294.244 176.143L291.98 175.182C291.814 175.112 291.709 175.154 291.639 175.32L291.014 176.792C290.951 176.94 290.986 177.063 291.151 177.133L293.416 178.095L292.939 179.218L290.675 178.256C290.509 178.186 290.404 178.228 290.334 178.394L289.709 179.867C289.646 180.014 289.681 180.138 289.846 180.208L292.111 181.169ZM288.749 181.002C288.93 181.036 289.014 180.941 289.058 180.786L289.429 179.4C289.462 179.219 289.383 179.099 289.202 179.065C287.58 178.637 285.739 178.008 284.322 177.407L283.696 177.141L284.141 176.091L288.891 178.108C289.038 178.17 289.17 178.117 289.232 177.97L290.936 173.956C290.998 173.809 290.956 173.704 290.808 173.642L283.905 170.711C283.757 170.649 283.653 170.691 283.59 170.838L283.027 172.164C282.957 172.33 282.992 172.453 283.139 172.515L287.944 174.555L287.553 175.476L282.785 173.452C282.638 173.389 282.517 173.468 282.455 173.616L280.704 177.739C280.649 177.868 280.684 177.992 280.831 178.054L283.206 179.062C285.231 179.922 287.274 180.637 288.749 181.002ZM282.851 186.451L283.25 185.512L291.295 188.927C291.46 188.997 291.599 188.926 291.662 188.779L293.389 184.71C293.444 184.581 293.409 184.458 293.243 184.387L283.044 180.058C282.897 179.996 282.784 180.056 282.73 180.185L282.159 181.529C282.089 181.695 282.123 181.818 282.271 181.881L290.389 185.327L289.999 186.247L281.917 182.817C281.769 182.754 281.649 182.834 281.594 182.962L279.844 187.086C279.781 187.234 279.824 187.338 279.971 187.401L290.557 191.894C290.722 191.965 290.846 191.93 290.908 191.783L291.494 190.402C291.565 190.236 291.504 190.124 291.338 190.053L282.851 186.451ZM212.352 185.054C215.998 186.601 218.177 185.766 219.185 183.391C219.841 181.845 219.51 180.27 218.012 179.091C219.438 179.11 220.559 178.26 221.122 176.935C221.974 174.928 221.144 172.838 217.904 171.463L213.265 169.493C213.118 169.431 212.986 169.484 212.924 169.631L207.391 182.665C207.329 182.813 207.382 182.944 207.529 183.006L212.352 185.054ZM214.526 172.766L216.827 173.743C218.245 174.345 218.839 175.249 218.409 176.261C217.972 177.292 216.917 177.475 215.499 176.873L213.198 175.896L214.526 172.766ZM212.244 178.142L214.895 179.267C216.552 179.971 217.178 180.953 216.701 182.076C216.217 183.218 215.067 183.469 213.411 182.765L210.76 181.64L212.244 178.142ZM228.913 192.083C229.06 192.146 229.191 192.093 229.254 191.946L230.043 190.086C230.106 189.939 230.053 189.808 229.906 189.745L223.388 186.979L224.857 183.518L230.546 185.932C230.693 185.995 230.825 185.942 230.887 185.795L231.661 183.972C231.723 183.825 231.67 183.694 231.523 183.631L225.834 181.216L227.139 178.142L233.436 180.815C233.583 180.877 233.714 180.824 233.777 180.677L234.566 178.817C234.628 178.67 234.575 178.539 234.428 178.477L225.886 174.851C225.738 174.788 225.607 174.841 225.545 174.988L220.012 188.023C219.95 188.17 220.003 188.301 220.15 188.364L228.913 192.083ZM247.474 201.787C247.658 201.865 247.763 201.823 247.825 201.675L254.499 185.953C254.562 185.806 254.527 185.683 254.343 185.605L252.484 184.815C252.318 184.745 252.205 184.806 252.143 184.953L245.469 200.675C245.406 200.822 245.449 200.927 245.614 200.998L247.474 201.787ZM240.25 194.44C243.141 195.667 245.839 194.531 247.394 190.868C248.941 187.223 247.884 184.492 244.994 183.266C242.122 182.046 239.405 183.175 237.858 186.82C236.302 190.483 237.378 193.221 240.25 194.44ZM241.141 192.342C239.613 191.693 239.203 190.15 240.196 187.812C241.18 185.493 242.583 184.697 244.111 185.346C245.657 186.002 246.059 187.563 245.074 189.883C244.082 192.221 242.687 192.998 241.141 192.342ZM265.586 204.304C265.771 204.382 265.875 204.34 265.938 204.193L270.752 192.852C270.814 192.705 270.78 192.582 270.596 192.503L268.736 191.714C268.57 191.644 268.458 191.705 268.395 191.852L263.581 203.192C263.519 203.34 263.561 203.445 263.727 203.515L265.586 204.304ZM258.053 197.739C260.686 198.856 263.272 197.933 264.303 195.503C265.327 193.092 264.194 190.59 261.562 189.473C258.929 188.355 256.343 189.278 255.319 191.69C254.288 194.12 255.42 196.621 258.053 197.739ZM258.897 195.75C257.608 195.203 257.073 193.955 257.62 192.667C258.167 191.378 259.437 190.895 260.726 191.442C262.014 191.99 262.549 193.238 262.002 194.526C261.455 195.815 260.186 196.297 258.897 195.75ZM264.165 208.676C264.331 208.747 264.443 208.686 264.506 208.539L265.186 206.937C265.256 206.771 265.214 206.666 265.048 206.596L256.579 203.001L258.025 199.596C258.08 199.467 258.045 199.343 257.88 199.273L256.002 198.476C255.836 198.406 255.723 198.466 255.669 198.595L253.442 203.842C253.379 203.989 253.414 204.113 253.579 204.183L264.165 208.676ZM285.615 198.879C285.468 198.816 285.355 198.877 285.292 199.024L283.049 204.308L281.65 203.714L283.745 198.78C283.807 198.633 283.773 198.509 283.607 198.439L281.784 197.666C281.637 197.603 281.524 197.664 281.462 197.811L275.148 212.686C275.085 212.834 275.12 212.957 275.267 213.02L277.089 213.793C277.255 213.864 277.368 213.803 277.43 213.655L280.767 205.794L282.166 206.388L278.619 214.746C278.556 214.894 278.598 214.999 278.746 215.061L280.605 215.85C280.771 215.921 280.857 215.871 280.92 215.723L287.594 200.001C287.656 199.854 287.64 199.738 287.474 199.668L285.615 198.879ZM276.491 207.781C275.461 205.498 275.328 202.638 276.407 200.098L276.649 199.527L278.803 200.441C278.987 200.519 279.081 200.451 279.144 200.303L279.831 198.683C279.894 198.536 279.878 198.421 279.694 198.342L272.9 195.459C272.735 195.388 272.622 195.449 272.559 195.597L271.872 197.217C271.809 197.364 271.844 197.487 272.009 197.558L274.347 198.55L274.105 199.121C273.027 201.661 270.912 203.675 268.279 204.708C268.095 204.783 268.041 204.911 268.104 205.069L268.766 206.632C268.837 206.771 268.969 206.87 269.153 206.796C270.828 206.073 272.385 205.017 273.468 203.847C273.442 205.444 273.771 207.126 274.39 208.584C274.464 208.768 274.619 208.812 274.777 208.748L276.353 208.157C276.51 208.094 276.573 207.947 276.491 207.781ZM202.193 208.987C205.838 210.534 208.018 209.699 209.026 207.324C209.682 205.778 209.351 204.203 207.853 203.024C209.279 203.043 210.4 202.193 210.963 200.868C211.815 198.861 210.985 196.771 207.745 195.396L203.106 193.426C202.959 193.364 202.827 193.417 202.765 193.564L197.232 206.598C197.17 206.746 197.223 206.877 197.37 206.939L202.193 208.987ZM204.367 196.699L206.668 197.676C208.086 198.278 208.68 199.182 208.25 200.195C207.813 201.225 206.758 201.408 205.34 200.806L203.039 199.829L204.367 196.699ZM202.085 202.075L204.736 203.2C206.393 203.904 207.019 204.886 206.542 206.009C206.058 207.151 204.908 207.402 203.252 206.698L200.601 205.573L202.085 202.075ZM218.754 216.016C218.901 216.079 219.032 216.026 219.095 215.879L219.884 214.019C219.947 213.872 219.894 213.741 219.746 213.678L213.229 210.912L214.698 207.451L220.387 209.866C220.534 209.928 220.666 209.875 220.728 209.728L221.502 207.905C221.564 207.758 221.511 207.627 221.364 207.564L215.675 205.15L216.98 202.075L223.277 204.748C223.424 204.81 223.555 204.757 223.618 204.61L224.407 202.751C224.469 202.603 224.416 202.472 224.269 202.41L215.727 198.784C215.579 198.721 215.448 198.774 215.386 198.921L209.853 211.956C209.791 212.103 209.844 212.234 209.991 212.297L218.754 216.016ZM242.157 212.827L243.548 209.55C243.611 209.403 243.576 209.28 243.392 209.202L241.514 208.405C241.367 208.342 241.254 208.403 241.192 208.55L237.55 217.129C237.488 217.276 237.522 217.4 237.67 217.462L239.548 218.259C239.732 218.338 239.844 218.277 239.907 218.129L241.274 214.908L243.612 215.9C243.797 215.978 243.901 215.936 243.972 215.77L244.644 214.187C244.714 214.021 244.68 213.898 244.496 213.82L242.157 212.827ZM238.256 208.608C238.319 208.46 238.295 208.363 238.111 208.285L231.115 205.315C230.949 205.245 230.844 205.288 230.782 205.435L230.11 207.018C230.047 207.165 230.082 207.289 230.247 207.359L235.108 209.422L235.069 209.514C234.217 211.521 231.818 212.002 227.767 211.412C227.604 211.386 227.457 211.476 227.468 211.654L227.39 213.425C227.383 213.596 227.504 213.669 227.685 213.702C232.704 214.42 236.123 213.633 237.482 210.43L238.256 208.608ZM234.242 216.529C230.578 214.974 228.073 215.605 227.229 217.593C226.392 219.563 227.671 221.822 231.335 223.377C234.98 224.925 237.502 224.257 238.33 222.305C239.174 220.317 237.887 218.076 234.242 216.529ZM232.171 221.407C229.87 220.431 229.238 219.359 229.567 218.585C229.895 217.812 231.105 217.522 233.406 218.499C235.707 219.475 236.32 220.54 235.992 221.313C235.664 222.086 234.472 222.384 232.171 221.407ZM251.316 220.93C255.035 222.508 257.285 221.66 258.059 219.838C258.832 218.015 257.879 215.807 254.16 214.229C250.46 212.658 248.191 213.498 247.418 215.321C246.644 217.143 247.615 219.359 251.316 220.93ZM252.129 219.015C249.919 218.078 249.42 217.105 249.756 216.313C250.099 215.503 251.138 215.206 253.348 216.143C255.575 217.089 256.064 218.035 255.721 218.845C255.384 219.637 254.356 219.961 252.129 219.015ZM257.543 227.245C257.709 227.316 257.822 227.255 257.876 227.126L258.509 225.635C258.572 225.487 258.545 225.346 258.379 225.275L243.283 218.867C243.136 218.805 243.015 218.884 242.953 219.031L242.32 220.523C242.265 220.651 242.3 220.775 242.447 220.837L257.543 227.245ZM253.204 232.4C253.388 232.478 253.501 232.417 253.564 232.27L254.189 230.797C254.251 230.65 254.217 230.526 254.033 230.448L245.27 226.728L246.387 224.096C246.45 223.948 246.407 223.844 246.26 223.781L244.4 222.992C244.216 222.914 244.111 222.956 244.049 223.103L242.205 227.448C242.142 227.595 242.177 227.719 242.361 227.797L253.204 232.4ZM271.68 235.136C271.864 235.214 271.969 235.172 272.032 235.025L276.845 223.684C276.908 223.537 276.873 223.413 276.689 223.335L274.83 222.546C274.664 222.476 274.551 222.537 274.489 222.684L269.675 234.024C269.613 234.172 269.655 234.277 269.821 234.347L271.68 235.136ZM265.355 226.389C265.817 227.759 266.688 229.237 267.801 230.404C267.898 230.533 268.082 230.611 268.211 230.513L269.633 229.466C269.769 229.35 269.832 229.202 269.716 229.066C267.931 227.027 267.106 225.438 267.723 223.984L268.02 223.284L271.021 224.558C271.205 224.636 271.318 224.575 271.373 224.446L272.052 222.845C272.107 222.716 272.073 222.592 271.888 222.514L263.438 218.927C263.273 218.857 263.16 218.918 263.105 219.047L262.425 220.648C262.371 220.777 262.405 220.901 262.571 220.971L265.664 222.284L265.367 222.983C264.71 224.53 262.538 225.194 259.915 225.384C259.745 225.377 259.674 225.543 259.704 225.729L260.03 227.519C260.065 227.642 260.215 227.749 260.394 227.738C262.294 227.611 264.065 227.124 265.355 226.389ZM262.673 233.833L264.111 230.446C264.166 230.317 264.131 230.194 263.965 230.123L262.088 229.326C261.922 229.256 261.809 229.317 261.755 229.446L259.535 234.674C259.473 234.821 259.507 234.945 259.673 235.015L270.259 239.508C270.424 239.579 270.537 239.518 270.6 239.371L271.28 237.769C271.35 237.603 271.307 237.498 271.142 237.428L262.673 233.833ZM190.125 232.11C190.273 232.172 190.404 232.119 190.466 231.972L192.631 226.872L197.786 229.06C197.933 229.123 198.064 229.07 198.127 228.923L198.916 227.063C198.979 226.916 198.926 226.785 198.778 226.722L193.623 224.534L195.108 221.036L201.092 223.576C201.239 223.639 201.37 223.586 201.432 223.438L202.222 221.579C202.284 221.432 202.231 221.301 202.084 221.238L193.855 217.745C193.707 217.682 193.576 217.735 193.514 217.883L187.981 230.917C187.919 231.064 187.971 231.195 188.119 231.258L190.125 232.11ZM207.687 239.564C207.834 239.627 207.966 239.574 208.028 239.426L208.817 237.567C208.88 237.42 208.827 237.289 208.68 237.226L202.162 234.46L203.632 230.999L209.32 233.413C209.468 233.476 209.599 233.423 209.661 233.276L210.435 231.453C210.497 231.306 210.444 231.175 210.297 231.112L204.608 228.697L205.913 225.623L212.21 228.295C212.357 228.358 212.488 228.305 212.551 228.158L213.34 226.298C213.402 226.151 213.349 226.02 213.202 225.957L204.66 222.331C204.513 222.269 204.381 222.322 204.319 222.469L198.786 235.503C198.724 235.651 198.777 235.782 198.924 235.844L207.687 239.564ZM229.311 242.051C229.495 242.129 229.608 242.068 229.671 241.921L233.273 233.434C233.336 233.287 233.301 233.164 233.117 233.085L231.258 232.296C231.092 232.226 230.979 232.287 230.917 232.434L227.314 240.921C227.252 241.068 227.286 241.192 227.452 241.262L229.311 242.051ZM216.914 236.963C221.891 237.88 225.496 236.912 226.731 234.003L227.504 232.18C227.559 232.052 227.525 231.928 227.34 231.85L220.345 228.881C220.197 228.818 220.085 228.879 220.03 229.008L219.35 230.609C219.295 230.738 219.33 230.862 219.477 230.924L224.337 232.987L224.306 233.061C223.556 234.828 220.95 235.439 217.15 234.716C216.969 234.683 216.841 234.781 216.833 234.951L216.637 236.693C216.638 236.845 216.759 236.918 216.914 236.963ZM226.266 249.276C226.432 249.346 226.545 249.285 226.607 249.138L229.131 243.191C229.186 243.063 229.152 242.939 228.986 242.869L218.842 238.563C218.676 238.493 218.563 238.554 218.509 238.682L215.985 244.629C215.922 244.776 215.957 244.899 216.122 244.97L226.266 249.276ZM220.115 241.45L226.025 243.959L225.001 246.37L219.091 243.862L220.115 241.45ZM234.073 242.443C234.084 242.621 234.134 242.708 234.297 242.734C237.138 243.157 239.763 242.859 241.21 242.213C241.769 243.711 243.379 245.806 245.638 247.547C245.77 247.647 245.885 247.631 246.021 247.514L247.275 246.2C247.377 246.113 247.402 245.95 247.289 245.858C244.448 243.696 243.04 241.23 243.641 239.812L244.173 238.56C244.235 238.413 244.201 238.29 244.035 238.22L242.12 237.407C241.973 237.344 241.86 237.405 241.798 237.552L241.267 238.804C240.665 240.222 237.912 240.922 234.384 240.38C234.221 240.355 234.121 240.486 234.13 240.62L234.073 242.443ZM231.826 243.336C231.678 243.273 231.566 243.334 231.495 243.5L230.815 245.101C230.753 245.249 230.787 245.372 230.935 245.434L237.323 248.146L235.322 252.859C235.26 253.006 235.302 253.111 235.45 253.174L237.309 253.963C237.475 254.033 237.598 253.999 237.66 253.851L239.661 249.138L246.031 251.842C246.197 251.913 246.309 251.852 246.372 251.705L247.052 250.103C247.122 249.937 247.087 249.814 246.922 249.744L231.826 243.336ZM260.574 258.776C260.758 258.854 260.871 258.793 260.926 258.664L265.778 247.232C265.841 247.085 265.806 246.961 265.622 246.883L263.763 246.094C263.597 246.023 263.485 246.084 263.422 246.232L258.569 257.664C258.514 257.793 258.549 257.916 258.715 257.987L260.574 258.776ZM260.486 246.137C260.54 246.008 260.506 245.885 260.34 245.814L258.517 245.041C258.352 244.97 258.239 245.031 258.184 245.16L257.442 246.909L253.76 245.346L254.502 243.597C254.557 243.468 254.541 243.353 254.375 243.282L252.534 242.501C252.35 242.423 252.256 242.491 252.201 242.62L249.021 250.113C248.958 250.26 248.974 250.376 249.158 250.454L256.964 253.767C257.13 253.838 257.243 253.777 257.305 253.63L260.486 246.137ZM252.947 247.261L256.629 248.823L255.746 250.904L252.064 249.341L252.947 247.261ZM251.772 257.451L253.171 254.156C253.233 254.009 253.191 253.904 253.044 253.841L251.166 253.044C250.982 252.966 250.895 253.016 250.833 253.164L248.652 258.3C248.59 258.447 248.606 258.563 248.79 258.641L259.192 263.056C259.358 263.126 259.47 263.066 259.533 262.918L260.213 261.317C260.283 261.151 260.241 261.046 260.075 260.976L251.772 257.451ZM179.966 256.043C180.114 256.105 180.245 256.052 180.307 255.905L182.472 250.805L187.627 252.994C187.774 253.056 187.905 253.003 187.968 252.856L188.757 250.996C188.82 250.849 188.767 250.718 188.619 250.655L183.464 248.467L184.949 244.969L190.933 247.509C191.08 247.572 191.211 247.519 191.273 247.371L192.063 245.512C192.125 245.365 192.072 245.234 191.925 245.171L183.696 241.678C183.548 241.616 183.417 241.668 183.355 241.816L177.822 254.85C177.759 254.997 177.812 255.129 177.96 255.191L179.966 256.043ZM197.528 263.497C197.675 263.56 197.807 263.507 197.869 263.36L198.658 261.5C198.721 261.353 198.668 261.222 198.521 261.159L192.003 258.393L193.473 254.932L199.161 257.346C199.309 257.409 199.44 257.356 199.502 257.209L200.276 255.386C200.338 255.239 200.285 255.108 200.138 255.045L194.449 252.63L195.754 249.556L202.051 252.229C202.198 252.291 202.329 252.238 202.392 252.091L203.181 250.231C203.243 250.084 203.19 249.953 203.043 249.891L194.501 246.265C194.354 246.202 194.222 246.255 194.16 246.402L188.627 259.437C188.565 259.584 188.618 259.715 188.765 259.778L197.528 263.497ZM216.089 273.201C216.273 273.279 216.378 273.237 216.44 273.089L223.114 257.367C223.177 257.22 223.142 257.097 222.958 257.019L221.099 256.229C220.933 256.159 220.82 256.22 220.758 256.367L214.084 272.089C214.021 272.236 214.064 272.341 214.23 272.412L216.089 273.201ZM208.865 265.854C211.756 267.081 214.454 265.945 216.009 262.282C217.556 258.637 216.499 255.906 213.609 254.68C210.737 253.46 208.02 254.589 206.473 258.234C204.918 261.897 205.993 264.635 208.865 265.854ZM209.756 263.756C208.228 263.107 207.818 261.564 208.811 259.226C209.795 256.907 211.198 256.111 212.726 256.76C214.272 257.416 214.674 258.977 213.689 261.297C212.697 263.635 211.303 264.412 209.756 263.756ZM232.824 265.552C232.659 265.482 232.546 265.542 232.483 265.69L231.85 267.181C231.78 267.347 231.822 267.452 231.988 267.522L234.713 268.678L233.306 271.992C233.244 272.139 233.286 272.244 233.452 272.315L235.311 273.104C235.495 273.182 235.6 273.14 235.663 272.992L239.367 264.266C239.429 264.119 239.395 263.996 239.211 263.917L237.351 263.128C237.186 263.058 237.073 263.119 237.01 263.266L235.549 266.709L232.824 265.552ZM227.836 266.759C228.316 268.136 229.28 269.501 230.386 270.579C230.51 270.697 230.668 270.785 230.796 270.688L232.134 269.583C232.263 269.485 232.333 269.32 232.209 269.202C230.425 267.315 229.574 265.889 230.192 264.434L230.512 263.68L233.439 264.922C233.605 264.993 233.71 264.95 233.772 264.803L234.429 263.256C234.483 263.128 234.449 263.004 234.283 262.934L225.999 259.417C225.833 259.347 225.72 259.408 225.666 259.537L225.009 261.083C224.947 261.23 224.989 261.335 225.155 261.406L228.174 262.687L227.854 263.442C227.197 264.988 225.177 265.5 222.601 265.58C222.422 265.591 222.352 265.756 222.381 265.943L222.605 267.667C222.632 267.809 222.801 267.924 222.961 267.905C224.804 267.862 226.51 267.478 227.836 266.759ZM229.914 271.334C226.047 269.693 223.694 270.324 222.85 272.312C222.014 274.282 223.187 276.431 227.053 278.072C230.92 279.713 233.281 279.065 234.117 277.095C234.961 275.106 233.78 272.975 229.914 271.334ZM227.89 276.103C225.588 275.126 224.836 274.133 225.188 273.305C225.54 272.476 226.768 272.346 229.07 273.323C231.371 274.299 232.149 275.282 231.797 276.11C231.446 276.938 230.191 277.079 227.89 276.103ZM253.604 270.027C253.438 269.957 253.325 270.017 253.263 270.165L251.833 273.534L249.219 272.424L250.297 269.883C250.36 269.736 250.325 269.613 250.178 269.55L248.337 268.769C248.171 268.699 248.058 268.759 247.996 268.907L247.293 270.564L243.629 269.008L244.332 267.352C244.395 267.204 244.36 267.081 244.194 267.011L242.353 266.229C242.188 266.159 242.075 266.22 242.013 266.367L239.043 273.363C238.98 273.51 239.023 273.615 239.189 273.685L247.013 277.006C247.16 277.069 247.265 277.027 247.328 276.879L248.367 274.431L250.981 275.54L249.66 278.652C249.598 278.799 249.632 278.922 249.798 278.993L251.658 279.782C251.842 279.86 251.954 279.799 252.017 279.652L255.619 271.165C255.682 271.018 255.647 270.894 255.463 270.816L253.604 270.027ZM242.816 270.923L246.48 272.478L245.769 274.154L242.105 272.598L242.816 270.923ZM241.28 276.333C241.096 276.255 241.002 276.323 240.947 276.452L238.423 282.399C238.361 282.546 238.377 282.662 238.561 282.74L248.613 287.007C248.778 287.077 248.891 287.016 248.954 286.869L251.478 280.922C251.532 280.793 251.498 280.67 251.332 280.6L241.28 276.333ZM241.511 281.624L242.535 279.212L248.371 281.689L247.347 284.101L241.511 281.624ZM169.807 279.976C169.955 280.038 170.086 279.985 170.148 279.838L172.313 274.739L177.468 276.927C177.615 276.989 177.746 276.936 177.809 276.789L178.598 274.93C178.661 274.782 178.608 274.651 178.46 274.589L173.305 272.401L174.79 268.903L180.774 271.442C180.921 271.505 181.052 271.452 181.114 271.305L181.904 269.445C181.966 269.298 181.913 269.167 181.766 269.104L173.537 265.611C173.389 265.549 173.258 265.602 173.196 265.749L167.663 278.783C167.6 278.931 167.653 279.062 167.801 279.124L169.807 279.976ZM187.369 287.43C187.516 287.493 187.647 287.44 187.71 287.293L188.499 285.433C188.562 285.286 188.509 285.155 188.362 285.092L181.844 282.326L183.314 278.865L189.002 281.28C189.15 281.342 189.281 281.289 189.343 281.142L190.117 279.319C190.179 279.172 190.126 279.041 189.979 278.978L184.29 276.564L185.595 273.489L191.892 276.162C192.039 276.224 192.17 276.171 192.233 276.024L193.022 274.165C193.084 274.017 193.031 273.886 192.884 273.824L184.342 270.198C184.195 270.135 184.063 270.188 184.001 270.335L178.468 283.37C178.406 283.517 178.459 283.648 178.606 283.711L187.369 287.43ZM210.94 280.162C210.774 280.092 210.661 280.153 210.599 280.3L208.622 284.958L205.731 283.731C205.547 283.653 205.434 283.714 205.372 283.861L204.692 285.463C204.622 285.628 204.664 285.733 204.848 285.811L207.738 287.038L203.925 296.022C203.862 296.17 203.905 296.275 204.071 296.345L205.93 297.134C206.114 297.212 206.219 297.17 206.281 297.023L212.955 281.3C213.018 281.153 212.983 281.03 212.799 280.952L210.94 280.162ZM204.611 290.056C203.245 287.695 202.428 284.654 203.702 281.653L204.64 279.444C204.694 279.315 204.66 279.191 204.512 279.129L202.635 278.332C202.469 278.262 202.375 278.33 202.32 278.459L201.382 280.668C200.077 283.743 197.501 285.256 194.541 286.086C194.373 286.123 194.295 286.307 194.359 286.465L194.935 288.23C194.988 288.361 195.135 288.424 195.322 288.394C197.455 287.822 199.418 286.831 200.659 285.75C200.772 287.275 201.393 289.19 202.416 291.08C202.517 291.253 202.645 291.308 202.803 291.244L204.473 290.432C204.612 290.361 204.693 290.221 204.611 290.056ZM217.711 290.663C218.249 291.956 219.306 293.252 220.437 294.275C220.542 294.385 220.737 294.489 220.847 294.384L222.085 293.258C222.229 293.124 222.247 292.979 222.141 292.869C220.207 291.027 219.431 289.785 220.033 288.368L220.158 288.073L223.14 289.339C223.306 289.409 223.411 289.367 223.473 289.22L224.114 287.71C224.169 287.581 224.134 287.458 223.968 287.388L220.986 286.122L221.627 284.612C221.682 284.483 221.647 284.36 221.5 284.297L219.603 283.492C219.438 283.422 219.343 283.491 219.289 283.619L218.648 285.129L215.555 283.816C215.371 283.738 215.258 283.799 215.204 283.928L214.563 285.437C214.5 285.585 214.543 285.69 214.727 285.768L217.82 287.081L217.695 287.375C217.062 288.866 215.282 289.219 212.627 289.178C212.456 289.171 212.349 289.321 212.379 289.508L212.511 291.193C212.53 291.353 212.714 291.431 212.866 291.431C214.718 291.522 216.377 291.248 217.711 290.663ZM222.679 289.708C222.495 289.63 222.401 289.699 222.33 289.864L221.729 291.282C221.666 291.429 221.682 291.545 221.866 291.623L224.499 292.74L223.522 295.042C223.46 295.189 223.502 295.294 223.668 295.364L225.527 296.153C225.711 296.232 225.816 296.189 225.879 296.042L229.208 288.199C229.27 288.052 229.236 287.929 229.052 287.85L227.192 287.061C227.027 286.991 226.914 287.052 226.851 287.199L225.312 290.826L222.679 289.708ZM214.94 298.829L215.3 297.983L223.308 301.382C223.474 301.452 223.605 301.399 223.667 301.252L225.34 297.312C225.402 297.165 225.368 297.042 225.202 296.971L215.003 292.642C214.855 292.579 214.743 292.64 214.68 292.788L214.102 294.15C214.032 294.316 214.074 294.42 214.221 294.483L222.303 297.914L221.975 298.687L213.93 295.272C213.782 295.209 213.67 295.27 213.607 295.417L211.888 299.468C211.826 299.615 211.868 299.72 212.015 299.782L222.527 304.244C222.675 304.307 222.798 304.272 222.86 304.125L223.454 302.726C223.525 302.56 223.464 302.448 223.317 302.385L214.94 298.829ZM235.686 301.9C235.502 301.821 235.415 301.872 235.345 302.037L234.767 303.4C234.696 303.565 234.72 303.662 234.904 303.741L238.384 305.218L237.954 306.23C237.892 306.377 237.926 306.501 238.092 306.571L239.951 307.36C240.135 307.438 240.248 307.378 240.311 307.23L245.46 295.098C245.523 294.951 245.488 294.827 245.304 294.749L243.445 293.96C243.279 293.89 243.166 293.951 243.104 294.098L239.165 303.376L235.686 301.9ZM234.281 297.479C237.172 298.706 239.134 298.127 239.861 296.415C240.595 294.684 239.649 292.87 236.759 291.643C233.887 290.424 231.906 290.996 231.171 292.726C230.445 294.438 231.409 296.26 234.281 297.479ZM235.993 293.448C237.355 294.026 237.859 294.783 237.578 295.446C237.304 296.09 236.41 296.253 235.047 295.675C233.685 295.097 233.199 294.347 233.473 293.703C233.754 293.04 234.63 292.869 235.993 293.448ZM230.989 301.448C230.934 301.577 230.987 301.708 231.153 301.779L232.994 302.56C233.141 302.623 233.254 302.562 233.308 302.433L234.152 300.445C235.738 301.009 237.207 301.437 238.724 301.755C238.905 301.789 239.021 301.772 239.065 301.617L239.472 300.095C239.516 299.94 239.463 299.809 239.282 299.776C237.045 299.261 234.689 298.413 231.78 297.178L228.853 295.936C228.687 295.865 228.575 295.926 228.512 296.073L227.871 297.583C227.817 297.712 227.851 297.835 228.017 297.905L231.404 299.343L231.809 299.515L230.989 301.448ZM230.807 305.152L231.683 303.09C231.745 302.943 231.611 302.799 231.445 302.728L229.659 301.97C229.493 301.9 229.389 301.942 229.326 302.09L227.662 306.011C227.599 306.158 227.634 306.282 227.799 306.352L238.901 311.064C239.085 311.142 239.197 311.081 239.26 310.934L239.94 309.333C240.01 309.167 239.976 309.044 239.791 308.965L230.807 305.152Z" fill="black"/>
</g>
<defs>
<filter id="filter0_d_1360_191" x="0.493164" y="0.492188" width="462.247" height="448.629" filterUnits="userSpaceOnUse" color-interpolation-filters="sRGB">
<feFlood flood-opacity="0" result="BackgroundImageFix"/>
<feColorMatrix in="SourceAlpha" type="matrix" values="0 0 0 0 0 0 0 0 0 0 0 0 0 0 0 0 0 0 127 0" result="hardAlpha"/>
<feOffset dy="4"/>
<feGaussianBlur stdDeviation="50"/>
<feComposite in2="hardAlpha" operator="out"/>
<feColorMatrix type="matrix" values="0 0 0 0 0 0 0 0 0 0 0 0 0 0 0 0 0 0 1 0"/>
<feBlend mode="normal" in2="BackgroundImageFix" result="effect1_dropShadow_1360_191"/>
<feBlend mode="normal" in="SourceGraphic" in2="effect1_dropShadow_1360_191" result="shape"/>
</filter>
</defs>
</svg>
