<svg width="1021" height="1021" viewBox="0 0 1021 1021" fill="none" xmlns="http://www.w3.org/2000/svg">
<circle cx="128.5" cy="61.5" r="2.5" fill="white"/>
<circle cx="483.5" cy="221.5" r="2.5" fill="white"/>
<circle cx="912.5" cy="12.5" r="2.5" fill="white"/>
<circle cx="277.5" cy="105.5" r="2.5" fill="white"/>
<circle cx="43.5" cy="159.5" r="2.5" fill="white"/>
<circle cx="732.5" cy="258.5" r="2.5" fill="white"/>
<circle cx="719.5" cy="158.5" r="2.5" fill="white"/>
<circle cx="654.5" cy="2.5" r="2.5" fill="white"/>
<circle cx="188.5" cy="261.5" r="2.5" fill="white"/>
<circle cx="951.5" cy="218.5" r="2.5" fill="white"/>
<circle cx="413.5" cy="59.5" r="2.5" fill="white"/>
<circle cx="844.5" cy="121.5" r="2.5" fill="white"/>
<circle cx="600.5" cy="93.5" r="2.5" fill="white"/>
<circle cx="403.5" cy="188.5" r="1.5" fill="white"/>
<circle cx="1020" cy="178" r="1" fill="white"/>
<circle cx="636.5" cy="180.5" r="1.5" fill="white"/>
<circle cx="251.5" cy="160.5" r="1.5" fill="white"/>
<circle cx="458.5" cy="248.5" r="1.5" fill="white"/>
<circle cx="836.5" cy="222.5" r="1.5" fill="white"/>
<circle cx="533.5" cy="42.5" r="1.5" fill="white"/>
<circle cx="305.5" cy="249.5" r="1.5" fill="white"/>
<circle cx="928.5" cy="84.5" r="1.5" fill="white"/>
<circle cx="208.5" cy="81.5" r="1.5" fill="white"/>
<circle cx="379.5" cy="73.5" r="1.5" fill="white"/>
<circle cx="495.5" cy="117.5" r="1.5" fill="white"/>
<circle cx="276" cy="202" r="1" fill="white"/>
<circle cx="578" cy="225" r="1" fill="white"/>
<circle cx="610" cy="125" r="1" fill="white"/>
<circle cx="883" cy="166" r="1" fill="white"/>
<circle cx="903" cy="275" r="1" fill="white"/>
<circle cx="1019" cy="65" r="1" fill="white"/>
<circle cx="314" cy="10" r="1" fill="white"/>
<circle cx="543" cy="168" r="1" fill="white"/>
<circle cx="723" cy="97" r="1" fill="white"/>
<circle cx="655" cy="63" r="1" fill="white"/>
<circle cx="372" cy="139" r="1" fill="white"/>
<circle cx="137" cy="215" r="1" fill="white"/>
<circle cx="181" cy="142" r="1" fill="white"/>
<circle cx="1" cy="285" r="1" fill="white"/>
<circle cx="787" cy="191" r="1" fill="white"/>
<circle cx="704" cy="246" r="1" fill="white"/>
<circle cx="892.5" cy="510.5" r="2.5" transform="rotate(180 892.5 510.5)" fill="white"/>
<circle cx="537.5" cy="350.5" r="2.5" transform="rotate(180 537.5 350.5)" fill="white"/>
<circle cx="108.5" cy="559.5" r="2.5" transform="rotate(180 108.5 559.5)" fill="white"/>
<circle cx="743.5" cy="466.5" r="2.5" transform="rotate(180 743.5 466.5)" fill="white"/>
<circle cx="977.5" cy="412.5" r="2.5" transform="rotate(180 977.5 412.5)" fill="white"/>
<circle cx="288.5" cy="313.5" r="2.5" transform="rotate(180 288.5 313.5)" fill="white"/>
<circle cx="301.5" cy="413.5" r="2.5" transform="rotate(180 301.5 413.5)" fill="white"/>
<circle cx="366.5" cy="569.5" r="2.5" transform="rotate(180 366.5 569.5)" fill="white"/>
<circle cx="832.5" cy="310.5" r="2.5" transform="rotate(180 832.5 310.5)" fill="white"/>
<circle cx="69.5" cy="353.5" r="2.5" transform="rotate(180 69.5 353.5)" fill="white"/>
<circle cx="607.5" cy="512.5" r="2.5" transform="rotate(180 607.5 512.5)" fill="white"/>
<circle cx="176.5" cy="450.5" r="2.5" transform="rotate(180 176.5 450.5)" fill="white"/>
<circle cx="420.5" cy="478.5" r="2.5" transform="rotate(180 420.5 478.5)" fill="white"/>
<circle cx="617.5" cy="383.5" r="1.5" transform="rotate(180 617.5 383.5)" fill="white"/>
<circle cx="1" cy="394" r="1" transform="rotate(180 1 394)" fill="white"/>
<circle cx="384.5" cy="391.5" r="1.5" transform="rotate(180 384.5 391.5)" fill="white"/>
<circle cx="769.5" cy="411.5" r="1.5" transform="rotate(180 769.5 411.5)" fill="white"/>
<circle cx="562.5" cy="323.5" r="1.5" transform="rotate(180 562.5 323.5)" fill="white"/>
<circle cx="184.5" cy="349.5" r="1.5" transform="rotate(180 184.5 349.5)" fill="white"/>
<circle cx="487.5" cy="529.5" r="1.5" transform="rotate(180 487.5 529.5)" fill="white"/>
<circle cx="715.5" cy="322.5" r="1.5" transform="rotate(180 715.5 322.5)" fill="white"/>
<circle cx="92.5" cy="487.5" r="1.5" transform="rotate(180 92.5 487.5)" fill="white"/>
<circle cx="812.5" cy="490.5" r="1.5" transform="rotate(180 812.5 490.5)" fill="white"/>
<circle cx="641.5" cy="498.5" r="1.5" transform="rotate(180 641.5 498.5)" fill="white"/>
<circle cx="525.5" cy="454.5" r="1.5" transform="rotate(180 525.5 454.5)" fill="white"/>
<circle cx="745" cy="370" r="1" transform="rotate(180 745 370)" fill="white"/>
<circle cx="443" cy="347" r="1" transform="rotate(180 443 347)" fill="white"/>
<circle cx="411" cy="447" r="1" transform="rotate(180 411 447)" fill="white"/>
<circle cx="138" cy="406" r="1" transform="rotate(180 138 406)" fill="white"/>
<circle cx="118" cy="297" r="1" transform="rotate(180 118 297)" fill="white"/>
<circle cx="2" cy="507" r="1" transform="rotate(180 2 507)" fill="white"/>
<circle cx="707" cy="562" r="1" transform="rotate(180 707 562)" fill="white"/>
<circle cx="478" cy="404" r="1" transform="rotate(180 478 404)" fill="white"/>
<circle cx="298" cy="475" r="1" transform="rotate(180 298 475)" fill="white"/>
<circle cx="366" cy="509" r="1" transform="rotate(180 366 509)" fill="white"/>
<circle cx="649" cy="433" r="1" transform="rotate(180 649 433)" fill="white"/>
<circle cx="884" cy="357" r="1" transform="rotate(180 884 357)" fill="white"/>
<circle cx="840" cy="430" r="1" transform="rotate(180 840 430)" fill="white"/>
<circle cx="1020" cy="287" r="1" transform="rotate(180 1020 287)" fill="white"/>
<circle cx="234" cy="381" r="1" transform="rotate(180 234 381)" fill="white"/>
<circle cx="317" cy="326" r="1" transform="rotate(180 317 326)" fill="white"/>
<circle cx="128.5" cy="510.5" r="2.5" fill="white"/>
<circle cx="483.5" cy="670.5" r="2.5" fill="white"/>
<circle cx="912.5" cy="461.5" r="2.5" fill="white"/>
<circle cx="277.5" cy="554.5" r="2.5" fill="white"/>
<circle cx="43.5" cy="608.5" r="2.5" fill="white"/>
<circle cx="732.5" cy="707.5" r="2.5" fill="white"/>
<circle cx="719.5" cy="607.5" r="2.5" fill="white"/>
<circle cx="654.5" cy="451.5" r="2.5" fill="white"/>
<circle cx="188.5" cy="710.5" r="2.5" fill="white"/>
<circle cx="951.5" cy="667.5" r="2.5" fill="white"/>
<circle cx="413.5" cy="508.5" r="2.5" fill="white"/>
<circle cx="844.5" cy="570.5" r="2.5" fill="white"/>
<circle cx="600.5" cy="542.5" r="2.5" fill="white"/>
<circle cx="403.5" cy="637.5" r="1.5" fill="white"/>
<circle cx="1020" cy="627" r="1" fill="white"/>
<circle cx="636.5" cy="629.5" r="1.5" fill="white"/>
<circle cx="251.5" cy="609.5" r="1.5" fill="white"/>
<circle cx="458.5" cy="697.5" r="1.5" fill="white"/>
<circle cx="836.5" cy="671.5" r="1.5" fill="white"/>
<circle cx="533.5" cy="491.5" r="1.5" fill="white"/>
<circle cx="305.5" cy="698.5" r="1.5" fill="white"/>
<circle cx="928.5" cy="533.5" r="1.5" fill="white"/>
<circle cx="208.5" cy="530.5" r="1.5" fill="white"/>
<circle cx="379.5" cy="522.5" r="1.5" fill="white"/>
<circle cx="495.5" cy="566.5" r="1.5" fill="white"/>
<circle cx="276" cy="651" r="1" fill="white"/>
<circle cx="578" cy="674" r="1" fill="white"/>
<circle cx="610" cy="574" r="1" fill="white"/>
<circle cx="883" cy="615" r="1" fill="white"/>
<circle cx="903" cy="724" r="1" fill="white"/>
<circle cx="1019" cy="514" r="1" fill="white"/>
<circle cx="314" cy="459" r="1" fill="white"/>
<circle cx="543" cy="617" r="1" fill="white"/>
<circle cx="723" cy="546" r="1" fill="white"/>
<circle cx="655" cy="512" r="1" fill="white"/>
<circle cx="372" cy="588" r="1" fill="white"/>
<circle cx="137" cy="664" r="1" fill="white"/>
<circle cx="181" cy="591" r="1" fill="white"/>
<circle cx="1" cy="734" r="1" fill="white"/>
<circle cx="787" cy="640" r="1" fill="white"/>
<circle cx="704" cy="695" r="1" fill="white"/>
<circle cx="892.5" cy="959.5" r="2.5" transform="rotate(180 892.5 959.5)" fill="white"/>
<circle cx="537.5" cy="799.5" r="2.5" transform="rotate(180 537.5 799.5)" fill="white"/>
<circle cx="108.5" cy="1008.5" r="2.5" transform="rotate(180 108.5 1008.5)" fill="white"/>
<circle cx="743.5" cy="915.5" r="2.5" transform="rotate(180 743.5 915.5)" fill="white"/>
<circle cx="977.5" cy="861.5" r="2.5" transform="rotate(180 977.5 861.5)" fill="white"/>
<circle cx="288.5" cy="762.5" r="2.5" transform="rotate(180 288.5 762.5)" fill="white"/>
<circle cx="301.5" cy="862.5" r="2.5" transform="rotate(180 301.5 862.5)" fill="white"/>
<circle cx="366.5" cy="1018.5" r="2.5" transform="rotate(180 366.5 1018.5)" fill="white"/>
<circle cx="832.5" cy="759.5" r="2.5" transform="rotate(180 832.5 759.5)" fill="white"/>
<circle cx="69.5" cy="802.5" r="2.5" transform="rotate(180 69.5 802.5)" fill="white"/>
<circle cx="607.5" cy="961.5" r="2.5" transform="rotate(180 607.5 961.5)" fill="white"/>
<circle cx="176.5" cy="899.5" r="2.5" transform="rotate(180 176.5 899.5)" fill="white"/>
<circle cx="420.5" cy="927.5" r="2.5" transform="rotate(180 420.5 927.5)" fill="white"/>
<circle cx="617.5" cy="832.5" r="1.5" transform="rotate(180 617.5 832.5)" fill="white"/>
<circle cx="1" cy="843" r="1" transform="rotate(180 1 843)" fill="white"/>
<circle cx="384.5" cy="840.5" r="1.5" transform="rotate(180 384.5 840.5)" fill="white"/>
<circle cx="769.5" cy="860.5" r="1.5" transform="rotate(180 769.5 860.5)" fill="white"/>
<circle cx="562.5" cy="772.5" r="1.5" transform="rotate(180 562.5 772.5)" fill="white"/>
<circle cx="184.5" cy="798.5" r="1.5" transform="rotate(180 184.5 798.5)" fill="white"/>
<circle cx="487.5" cy="978.5" r="1.5" transform="rotate(180 487.5 978.5)" fill="white"/>
<circle cx="715.5" cy="771.5" r="1.5" transform="rotate(180 715.5 771.5)" fill="white"/>
<circle cx="92.5" cy="936.5" r="1.5" transform="rotate(180 92.5 936.5)" fill="white"/>
<circle cx="812.5" cy="939.5" r="1.5" transform="rotate(180 812.5 939.5)" fill="white"/>
<circle cx="641.5" cy="947.5" r="1.5" transform="rotate(180 641.5 947.5)" fill="white"/>
<circle cx="525.5" cy="903.5" r="1.5" transform="rotate(180 525.5 903.5)" fill="white"/>
<circle cx="745" cy="819" r="1" transform="rotate(180 745 819)" fill="white"/>
<circle cx="443" cy="796" r="1" transform="rotate(180 443 796)" fill="white"/>
<circle cx="411" cy="896" r="1" transform="rotate(180 411 896)" fill="white"/>
<circle cx="138" cy="855" r="1" transform="rotate(180 138 855)" fill="white"/>
<circle cx="118" cy="746" r="1" transform="rotate(180 118 746)" fill="white"/>
<circle cx="2" cy="956" r="1" transform="rotate(180 2 956)" fill="white"/>
<circle cx="707" cy="1011" r="1" transform="rotate(180 707 1011)" fill="white"/>
<circle cx="478" cy="853" r="1" transform="rotate(180 478 853)" fill="white"/>
<circle cx="298" cy="924" r="1" transform="rotate(180 298 924)" fill="white"/>
<circle cx="366" cy="958" r="1" transform="rotate(180 366 958)" fill="white"/>
<circle cx="649" cy="882" r="1" transform="rotate(180 649 882)" fill="white"/>
<circle cx="884" cy="806" r="1" transform="rotate(180 884 806)" fill="white"/>
<circle cx="840" cy="879" r="1" transform="rotate(180 840 879)" fill="white"/>
<circle cx="1020" cy="736" r="1" transform="rotate(180 1020 736)" fill="white"/>
<circle cx="234" cy="830" r="1" transform="rotate(180 234 830)" fill="white"/>
<circle cx="317" cy="775" r="1" transform="rotate(180 317 775)" fill="white"/>
</svg>
