<svg width="449" height="462" viewBox="0 0 449 462" fill="none" xmlns="http://www.w3.org/2000/svg">
<g filter="url(#filter0_d_1360_182)">
<path fill-rule="evenodd" clip-rule="evenodd" d="M286.257 96.8209L100.82 171.742L175.742 357.179L328.727 295.369L348.121 249.94L348.121 249.94L347.933 249.861L348.067 249.806L286.257 96.8209Z" fill="#F7FDB0"/>
<path fill-rule="evenodd" clip-rule="evenodd" d="M348.067 249.806L328.673 295.234L315.616 262.917L348.067 249.806ZM328.862 295.314L328.727 295.368L328.673 295.234L328.862 295.314Z" fill="#D3D98F"/>
<path d="M202.308 218.352C202.438 218.3 202.508 218.207 202.511 218.054L202.449 215.124L208.105 212.839L210.096 214.99C210.204 215.097 210.319 215.116 210.449 215.063L212.785 214.119C212.952 214.052 213 213.903 212.858 213.766L202.113 202.814C202.005 202.706 201.89 202.688 201.76 202.741L200.035 203.437C199.905 203.49 199.835 203.583 199.832 203.735L199.711 219.078C199.704 219.275 199.842 219.349 200.008 219.281L202.308 218.352ZM202.248 206.512L206.278 210.881L202.384 212.454L202.248 206.512ZM219.36 211.764C222.216 210.611 223.436 207.918 222.327 205.173C221.241 202.484 218.79 201.382 216.268 202.401C215.174 202.843 214.344 203.567 213.82 204.512L212.779 201.028L218.583 198.683C218.732 198.623 218.787 198.493 218.727 198.345L217.97 196.472C217.91 196.323 217.78 196.268 217.632 196.328L210.177 199.34C210.029 199.4 209.977 199.485 210.026 199.66L212.205 206.868C212.239 207.006 212.358 207.087 212.492 207.098L213.77 207.164C213.904 207.174 214.015 207.129 214.096 207.01C214.79 205.845 215.475 205.245 216.403 204.871C217.886 204.271 219.173 204.787 219.742 206.196C220.289 207.55 219.707 208.777 218.242 209.369C217.018 209.864 215.854 209.6 214.963 208.623C214.848 208.497 214.733 208.479 214.599 208.576L212.962 209.755C212.828 209.852 212.799 209.993 212.915 210.119C214.522 212.123 216.913 212.753 219.36 211.764ZM231.139 207.006C234.458 205.665 235.36 202.237 233.569 197.805C231.779 193.373 228.749 191.534 225.43 192.875C222.129 194.209 221.227 197.636 223.018 202.068C224.808 206.5 227.838 208.339 231.139 207.006ZM230.15 204.558C228.499 205.225 226.888 204.172 225.614 201.019C224.34 197.867 224.768 195.99 226.419 195.323C228.088 194.649 229.699 195.702 230.973 198.854C232.247 202.007 231.819 203.884 230.15 204.558ZM243.228 202.121C246.084 200.967 247.304 198.274 246.195 195.53C245.109 192.841 242.657 191.739 240.135 192.758C239.041 193.2 238.212 193.923 237.688 194.869L236.647 191.385L242.451 189.04C242.6 188.98 242.655 188.85 242.595 188.701L241.838 186.828C241.778 186.68 241.648 186.625 241.5 186.685L234.045 189.697C233.897 189.757 233.845 189.842 233.894 190.017L236.073 197.225C236.107 197.362 236.226 197.444 236.36 197.454L237.638 197.521C237.771 197.531 237.883 197.486 237.964 197.367C238.658 196.202 239.343 195.602 240.27 195.227C241.754 194.628 243.041 195.143 243.61 196.553C244.157 197.906 243.574 199.134 242.109 199.726C240.886 200.22 239.722 199.957 238.831 198.98C238.716 198.854 238.6 198.836 238.467 198.933L236.83 200.112C236.696 200.209 236.667 200.35 236.782 200.476C238.39 202.48 240.78 203.11 243.228 202.121ZM178.375 266.202C184.316 263.801 188.213 259.703 186.244 254.83C184.275 249.957 178.639 249.749 172.697 252.149C166.789 254.536 162.879 258.601 164.848 263.474C166.817 268.348 172.467 268.589 178.375 266.202ZM174.194 255.854C177.899 254.358 181.041 254.253 181.971 256.556C182.902 258.859 180.57 260.966 176.864 262.463C173.193 263.947 170.018 264.065 169.087 261.762C168.157 259.459 170.523 257.338 174.194 255.854ZM165.526 273.8C165.259 273.908 165.193 274.129 165.301 274.396L166.487 277.334C166.582 277.567 166.783 277.68 167.05 277.572L173.225 275.077L176.556 283.322C176.664 283.589 176.818 283.682 177.118 283.561L180.523 282.185C180.79 282.077 180.903 281.876 180.795 281.609L177.464 273.365L184.006 270.721L187.337 278.966C187.445 279.233 187.632 279.313 187.933 279.191L191.304 277.829C191.604 277.708 191.717 277.507 191.61 277.24L188.279 268.995L194.42 266.514C194.721 266.393 194.787 266.172 194.692 265.938L193.506 263.001C193.398 262.734 193.197 262.621 192.896 262.742L165.526 273.8ZM210.686 235.869C210.419 235.977 210.353 236.198 210.461 236.465L214.709 246.979L212.172 248.004L208.18 238.124C208.072 237.857 207.872 237.744 207.571 237.865L204.267 239.2C204 239.308 203.934 239.529 204.041 239.796L214.938 266.766C215.046 267.033 215.247 267.146 215.514 267.038L218.818 265.703C219.119 265.582 219.185 265.361 219.077 265.094L213.71 251.809L216.246 250.784L221.978 264.97C222.086 265.237 222.273 265.317 222.54 265.209L225.911 263.847C226.212 263.725 226.258 263.552 226.15 263.284L214.633 234.779C214.525 234.512 214.358 234.386 214.057 234.507L210.686 235.869ZM197.474 256.505C199.21 255.804 200.939 254.989 202.427 254.155C202.818 255.317 203.13 256.472 203.387 257.494C203.448 257.741 203.67 258.001 203.95 257.926L207.116 257.113C207.43 257.025 207.637 256.864 207.535 256.517C206.843 253.458 205.343 248.783 204.102 245.712L203.064 243.142C202.956 242.875 202.755 242.762 202.454 242.884L190.305 247.792C190.038 247.9 189.971 248.121 190.079 248.388L191.199 251.159C191.307 251.426 191.507 251.539 191.774 251.431L200.253 248.005L200.482 248.573C200.725 249.174 200.967 249.774 201.177 250.389C199.502 251.337 197.707 252.179 195.203 253.19L192.266 254.377C191.966 254.498 191.9 254.719 192.007 254.986L193.127 257.757C193.235 258.024 193.436 258.137 193.736 258.015L197.474 256.505ZM210.28 259.369C210.078 259.062 209.904 259.016 209.597 259.217C207.863 260.306 205.601 261.531 203.305 262.575L201.349 257.735C201.241 257.468 201.04 257.355 200.707 257.49L197.502 258.784C197.235 258.892 197.169 259.113 197.277 259.38L199.26 264.287L195.788 265.689C195.488 265.811 195.442 265.985 195.549 266.252L196.682 269.056C196.777 269.289 196.944 269.416 197.245 269.294L203.053 266.948C205.756 265.855 209.173 264.125 211.5 262.486C211.774 262.298 211.806 262.091 211.618 261.817L210.28 259.369ZM236.555 229.378C236.447 229.111 236.28 228.984 235.979 229.106L229.738 231.627L228.645 228.924C228.537 228.657 228.336 228.544 228.036 228.665L224.565 230.068C224.264 230.189 224.185 230.377 224.306 230.677L225.398 233.381L219.19 235.889C218.89 236.01 218.824 236.231 218.931 236.498L220.051 239.269C220.159 239.536 220.36 239.649 220.66 239.527L237.449 232.744C237.75 232.622 237.783 232.415 237.675 232.148L236.555 229.378ZM244.847 231.929L241.597 223.885C241.489 223.618 241.288 223.505 240.954 223.64L237.583 225.002C237.316 225.11 237.217 225.344 237.324 225.611L245.645 246.206C245.753 246.473 245.941 246.553 246.208 246.445L249.612 245.069C249.946 244.934 250.026 244.747 249.918 244.48L246.371 235.701L250.61 233.988C250.944 233.854 251.01 233.633 250.888 233.332L249.729 230.462C249.607 230.161 249.42 230.082 249.086 230.217L244.847 231.929ZM239.172 239.891C237.702 236.253 233.822 235.297 229.416 237.077C225.043 238.844 222.949 242.213 224.419 245.852C225.902 249.523 229.75 250.493 234.122 248.726C238.528 246.946 240.656 243.563 239.172 239.891ZM228.524 244.193C227.945 242.758 228.742 241.271 230.811 240.435C232.881 239.599 234.453 240.128 235.033 241.563C235.627 243.032 234.863 244.505 232.793 245.341C230.724 246.177 229.118 245.662 228.524 244.193ZM237.211 254.739L235.445 250.366C235.337 250.099 235.136 249.986 234.836 250.107L231.431 251.483C231.131 251.604 231.064 251.825 231.172 252.092L234.288 259.803C234.395 260.07 234.596 260.183 234.897 260.061L253.889 252.388C254.19 252.266 254.256 252.046 254.148 251.779L252.988 248.908C252.867 248.608 252.666 248.495 252.365 248.616L237.211 254.739ZM274.112 219.523L271.064 211.98C270.956 211.713 270.755 211.6 270.421 211.735L267.017 213.11C266.75 213.218 266.684 213.439 266.791 213.706L275.166 234.434C275.261 234.668 275.462 234.781 275.729 234.673L279.133 233.297C279.467 233.162 279.533 232.941 279.439 232.708L275.636 223.295L279.875 221.582C280.209 221.447 280.288 221.26 280.167 220.96L279.007 218.089C278.886 217.789 278.685 217.676 278.351 217.811L274.112 219.523ZM263.868 216.945C263.774 216.711 263.606 216.585 263.306 216.706L259.968 218.055C259.667 218.176 259.635 218.383 259.729 218.617L261.01 221.788L254.334 224.485L253.053 221.314C252.959 221.081 252.758 220.968 252.458 221.089L249.153 222.424C248.819 222.559 248.753 222.78 248.848 223.013L254.282 236.465C254.377 236.699 254.578 236.812 254.911 236.677L269.064 230.959C269.364 230.837 269.397 230.63 269.303 230.396L263.868 216.945ZM255.737 227.957L262.413 225.259L263.883 228.898L257.207 231.595L255.737 227.957ZM266.745 242.612L264.331 236.637C264.223 236.37 264.035 236.291 263.735 236.412L260.33 237.788C260.03 237.909 259.95 238.097 260.058 238.364L263.821 247.676C263.929 247.943 264.13 248.056 264.43 247.935L283.289 240.315C283.589 240.194 283.655 239.973 283.547 239.706L282.374 236.802C282.253 236.502 282.065 236.422 281.765 236.544L266.745 242.612ZM303.579 207.618L300.531 200.074C300.423 199.807 300.222 199.694 299.888 199.829L296.484 201.205C296.217 201.313 296.151 201.533 296.259 201.8L304.566 222.362C304.674 222.629 304.861 222.708 305.128 222.6L308.533 221.225C308.867 221.09 308.946 220.902 308.838 220.635L305.103 211.39L309.342 209.677C309.676 209.542 309.755 209.355 309.634 209.054L308.474 206.184C308.353 205.883 308.152 205.77 307.818 205.905L303.579 207.618ZM300.269 219.128C300.563 218.893 300.576 218.732 300.434 218.479L299.11 216.257C298.908 215.95 298.654 215.898 298.414 216.072C295.973 217.719 292.649 219.294 290.146 220.306L287.442 221.398L286.228 218.394L296.208 214.362C296.509 214.24 296.595 213.973 296.5 213.739L293.062 205.228C292.967 204.994 292.766 204.881 292.466 205.002L278.547 210.626C278.247 210.747 278.18 210.968 278.275 211.202L279.286 213.705C279.408 214.006 279.609 214.119 279.909 213.997L289.989 209.924L291.082 212.628L281.068 216.674C280.768 216.795 280.715 217.049 280.823 217.316L284.37 226.095C284.464 226.329 284.665 226.442 284.966 226.32L290.84 223.947C294.178 222.598 297.909 220.78 300.269 219.128ZM296.212 230.707L294.108 225.5C294 225.233 293.813 225.153 293.512 225.274L290.107 226.65C289.807 226.771 289.728 226.959 289.835 227.226L293.288 235.771C293.396 236.038 293.597 236.151 293.897 236.029L312.756 228.41C313.056 228.289 313.122 228.068 313.015 227.801L311.841 224.897C311.72 224.596 311.532 224.517 311.232 224.638L296.212 230.707Z" fill="black"/>
</g>
<defs>
<filter id="filter0_d_1360_182" x="0.820312" y="0.821289" width="447.301" height="460.357" filterUnits="userSpaceOnUse" color-interpolation-filters="sRGB">
<feFlood flood-opacity="0" result="BackgroundImageFix"/>
<feColorMatrix in="SourceAlpha" type="matrix" values="0 0 0 0 0 0 0 0 0 0 0 0 0 0 0 0 0 0 127 0" result="hardAlpha"/>
<feOffset dy="4"/>
<feGaussianBlur stdDeviation="50"/>
<feComposite in2="hardAlpha" operator="out"/>
<feColorMatrix type="matrix" values="0 0 0 0 0 0 0 0 0 0 0 0 0 0 0 0 0 0 1 0"/>
<feBlend mode="normal" in2="BackgroundImageFix" result="effect1_dropShadow_1360_182"/>
<feBlend mode="normal" in="SourceGraphic" in2="effect1_dropShadow_1360_182" result="shape"/>
</filter>
</defs>
</svg>
