<svg width="1435" height="1453" viewBox="0 0 1435 1453" fill="none" xmlns="http://www.w3.org/2000/svg">
<circle cx="775.5" cy="860.5" r="2.5" fill="white"/>
<circle cx="1113.5" cy="469.5" r="2.5" fill="white"/>
<circle cx="863.5" cy="508.5" r="2.5" fill="white"/>
<circle cx="147.5" cy="1115.5" r="2.5" fill="white"/>
<circle cx="513.5" cy="685.5" r="2.5" fill="white"/>
<circle cx="397.5" cy="1384.5" r="2.5" fill="white"/>
<circle cx="1178.5" cy="152.5" r="2.5" fill="white"/>
<circle cx="447.5" cy="38.5" r="2.5" fill="white"/>
<circle cx="775.5" cy="591.5" r="2.5" fill="white"/>
<circle cx="569.5" cy="825.5" r="2.5" fill="white"/>
<circle cx="196.5" cy="615.5" r="2.5" fill="white"/>
<circle cx="128.5" cy="328.5" r="2.5" fill="white"/>
<circle cx="1038.5" cy="572.5" r="2.5" fill="white"/>
<circle cx="1127.5" cy="719.5" r="2.5" fill="white"/>
<circle cx="20.5" cy="569.5" r="2.5" fill="white"/>
<circle cx="1255.5" cy="274.5" r="2.5" fill="white"/>
<circle cx="321.5" cy="1013.5" r="2.5" fill="white"/>
<circle cx="1091.5" cy="1310.5" r="2.5" fill="white"/>
<circle cx="553.5" cy="1399.5" r="2.5" fill="white"/>
<circle cx="375.5" cy="131.5" r="2.5" fill="white"/>
<circle cx="1421.5" cy="794.5" r="2.5" fill="white"/>
<circle cx="868.5" cy="1075.5" r="2.5" fill="white"/>
<circle cx="707.5" cy="683.5" r="2.5" fill="white"/>
<circle cx="608.5" cy="832.5" r="1.5" fill="white"/>
<circle cx="996.5" cy="1007.5" r="1.5" fill="white"/>
<circle cx="278.5" cy="1299.5" r="1.5" fill="white"/>
<circle cx="771.5" cy="1.5" r="1.5" fill="white"/>
<circle cx="1433.5" cy="887.5" r="1.5" fill="white"/>
<circle cx="159.5" cy="345.5" r="1.5" fill="white"/>
<circle cx="672.5" cy="972.5" r="1.5" fill="white"/>
<circle cx="740.5" cy="465.5" r="1.5" fill="white"/>
<circle cx="306.5" cy="643.5" r="1.5" fill="white"/>
<circle cx="711.5" cy="1176.5" r="1.5" fill="white"/>
<circle cx="1211.5" cy="1176.5" r="1.5" fill="white"/>
<circle cx="1.5" cy="887.5" r="1.5" fill="white"/>
<circle cx="1369.5" cy="478.5" r="1.5" fill="white"/>
<circle cx="465.5" cy="906.5" r="1.5" fill="white"/>
<circle cx="356" cy="891" r="2" fill="white"/>
<circle cx="53" cy="798" r="2" fill="white"/>
<circle cx="889" cy="1205" r="2" fill="white"/>
<circle cx="509" cy="215" r="2" fill="white"/>
<circle cx="752" cy="1380" r="2" fill="white"/>
<circle cx="793" cy="364" r="2" fill="white"/>
<circle cx="952" cy="43" r="2" fill="white"/>
<circle cx="605" cy="90" r="2" fill="white"/>
<circle cx="1183" cy="1111" r="2" fill="white"/>
<circle cx="1275.5" cy="829.5" r="1.5" fill="white"/>
<circle cx="1078.5" cy="87.5" r="1.5" fill="white"/>
<circle cx="611.5" cy="270.5" r="1.5" fill="white"/>
<circle cx="952.5" cy="738.5" r="1.5" fill="white"/>
<circle cx="319.5" cy="292.5" r="1.5" fill="white"/>
<circle cx="566" cy="1076" r="1" fill="white"/>
<circle cx="1287" cy="1162" r="1" fill="white"/>
<circle cx="1023" cy="1208" r="1" fill="white"/>
<circle cx="913" cy="909" r="1" fill="white"/>
<circle cx="552" cy="619" r="1" fill="white"/>
<circle cx="466" cy="493" r="1" fill="white"/>
<circle cx="583" cy="1282" r="1" fill="white"/>
<circle cx="151" cy="956" r="1" fill="white"/>
<circle cx="950" cy="644" r="1" fill="white"/>
<circle cx="1124" cy="408" r="1" fill="white"/>
<circle cx="157" cy="541" r="1" fill="white"/>
<circle cx="1095" cy="858" r="1" fill="white"/>
<circle cx="1256" cy="964" r="1" fill="white"/>
<circle cx="1245" cy="356" r="1" fill="white"/>
<circle cx="247" cy="383" r="1" fill="white"/>
<circle cx="850" cy="174" r="1" fill="white"/>
<circle cx="753" cy="249" r="1" fill="white"/>
<circle cx="593" cy="433" r="1" fill="white"/>
<circle cx="670" cy="553" r="1" fill="white"/>
<circle cx="994" cy="422" r="1" fill="white"/>
<circle cx="95" cy="722" r="1" fill="white"/>
<circle cx="1059" cy="295" r="1" fill="white"/>
<circle cx="738" cy="1452" r="1" fill="white"/>
<circle cx="984" cy="1386" r="1" fill="white"/>
<circle cx="276" cy="1142" r="1" fill="white"/>
<circle cx="409" cy="759" r="1" fill="white"/>
<circle cx="926.5" cy="288.5" r="2.5" fill="white"/>
<circle cx="356.5" cy="474.5" r="2.5" fill="white"/>
<circle cx="1132.5" cy="1011.5" r="2.5" fill="white"/>
<circle cx="227.5" cy="799.5" r="2.5" fill="white"/>
<circle cx="1274.5" cy="586.5" r="2.5" fill="white"/>
<circle cx="702.5" cy="136.5" r="2.5" fill="white"/>
<circle cx="518.5" cy="359.5" r="2.5" fill="white"/>
<circle cx="442.5" cy="1211.5" r="2.5" fill="white"/>
<circle cx="793.5" cy="1297.5" r="2.5" fill="white"/>
</svg>
