<svg width="432" height="426" viewBox="0 0 432 426" fill="none" xmlns="http://www.w3.org/2000/svg">
<g filter="url(#filter0_d_1360_209)">
<path fill-rule="evenodd" clip-rule="evenodd" d="M331.845 130.884L134.884 96.1543L100.154 293.116L262.647 321.768L303.168 293.52L303.168 293.519L303.051 293.352L303.193 293.377L331.845 130.884Z" fill="#ABFAB3"/>
<path fill-rule="evenodd" clip-rule="evenodd" d="M303.193 293.377L262.673 321.626L268.725 287.3L303.193 293.377ZM262.79 321.793L262.647 321.768L262.673 321.626L262.79 321.793Z" fill="#63D382"/>
<path d="M149.761 172.777C150.013 172.821 150.198 172.691 150.243 172.439L151.91 162.985L162.624 164.874L160.957 174.329C160.913 174.581 161.043 174.766 161.295 174.81L164.73 175.416C164.982 175.461 165.167 175.331 165.212 175.079L169.146 152.767C169.19 152.515 169.06 152.329 168.808 152.285L165.373 151.679C165.121 151.635 164.936 151.765 164.891 152.017L163.33 160.872L152.615 158.983L154.177 150.127C154.221 149.875 154.091 149.69 153.839 149.646L150.404 149.04C150.152 148.995 149.967 149.125 149.922 149.377L145.988 171.689C145.944 171.941 146.074 172.127 146.326 172.171L149.761 172.777ZM180.993 178.739C187.737 179.928 193.492 176.036 194.77 168.788C196.048 161.54 191.971 155.914 185.227 154.725C178.483 153.536 172.728 157.428 171.45 164.676C170.172 171.924 174.249 177.55 180.993 178.739ZM181.726 174.579C177.283 173.795 175.056 170.023 175.862 165.454C176.667 160.884 180.05 158.101 184.494 158.885C188.937 159.668 191.164 163.44 190.358 168.01C189.552 172.579 186.17 175.362 181.726 174.579ZM205.669 182.635C211.909 183.735 215.006 181.649 215.723 177.584C216.19 174.937 215.107 172.601 212.346 171.302C214.576 170.818 216.018 169.09 216.418 166.821C217.024 163.386 214.979 160.426 209.433 159.448L201.491 158.048C201.239 158.003 201.054 158.133 201.009 158.385L197.075 180.697C197.031 180.949 197.16 181.135 197.413 181.179L205.669 182.635ZM204.636 162.697L208.575 163.391C211.002 163.819 212.253 165.014 211.947 166.748C211.636 168.512 210.057 169.176 207.63 168.748L203.691 168.054L204.636 162.697ZM203.013 171.899L207.551 172.699C210.387 173.199 211.717 174.506 211.378 176.428C211.033 178.382 209.332 179.186 206.495 178.686L201.957 177.886L203.013 171.899ZM227.273 186.444C233.513 187.545 236.61 185.459 237.327 181.393C237.794 178.746 236.711 176.411 233.951 175.112C236.181 174.628 237.623 172.9 238.023 170.631C238.628 167.196 236.583 164.236 231.037 163.258L223.095 161.857C222.843 161.813 222.658 161.943 222.613 162.195L218.679 184.507C218.635 184.759 218.765 184.944 219.017 184.988L227.273 186.444ZM226.24 166.506L230.179 167.201C232.606 167.628 233.857 168.824 233.552 170.557C233.24 172.322 231.661 172.986 229.235 172.558L225.295 171.863L226.24 166.506ZM224.617 175.708L229.155 176.508C231.992 177.008 233.321 178.315 232.982 180.237C232.637 182.191 230.936 182.996 228.1 182.496L223.562 181.696L224.617 175.708ZM249.195 190.31C249.447 190.354 249.633 190.224 249.677 189.972L251.161 181.558L261.977 169.233C262.185 168.977 262.098 168.734 261.783 168.679L257.875 167.99C257.654 167.951 257.48 168.018 257.352 168.19L249.753 177.378L245.724 166.14C245.662 165.934 245.521 165.812 245.301 165.773L241.33 165.073C241.015 165.017 240.85 165.215 240.958 165.527L246.901 180.839L245.423 189.222C245.378 189.474 245.508 189.66 245.76 189.704L249.195 190.31ZM265.428 176.373C265.649 176.412 265.86 176.319 265.988 176.147L267.635 173.805C268.931 171.986 269.429 171.002 269.59 170.088C269.824 168.765 269.003 167.71 267.616 167.465C266.198 167.215 265.054 167.988 264.826 169.281C264.66 170.226 265.062 171.077 265.82 171.568L263.62 175.567C263.476 175.834 263.6 176.05 263.884 176.1L265.428 176.373ZM273.539 194.602C273.791 194.647 273.976 194.517 274.021 194.265L277.955 171.953C277.999 171.701 277.869 171.515 277.617 171.471L274.182 170.865C273.93 170.821 273.745 170.951 273.7 171.203L269.766 193.515C269.722 193.767 269.852 193.952 270.104 193.996L273.539 194.602ZM288.789 197.291C289.041 197.336 289.226 197.206 289.271 196.954L292.572 178.234L299.694 179.49C299.946 179.535 300.131 179.405 300.176 179.153L300.737 175.97C300.781 175.718 300.651 175.532 300.399 175.488L281.869 172.221C281.617 172.176 281.463 172.312 281.419 172.564L280.858 175.747C280.813 175.999 280.911 176.178 281.163 176.223L288.317 177.484L285.016 196.204C284.972 196.456 285.102 196.641 285.354 196.685L288.789 197.291ZM213.111 207.294C213.395 207.344 213.549 207.209 213.593 206.956L214.06 204.309C214.104 204.057 214.012 203.846 213.728 203.796L205.282 202.307L205.716 199.849C205.76 199.596 205.662 199.417 205.378 199.367L202.101 198.789C201.849 198.744 201.695 198.88 201.651 199.132L201.217 201.59L192.74 200.095C192.456 200.045 192.328 200.217 192.284 200.47L191.817 203.117C191.773 203.369 191.84 203.543 192.123 203.593L213.111 207.294ZM201.961 220.957L202.434 218.279C206.551 218.517 209.631 217.078 210.209 213.801C210.882 209.988 207.556 207.289 202.419 206.383C197.314 205.483 193.329 206.892 192.656 210.706C192.073 214.015 194.444 216.415 198.426 217.604L197.959 220.252L187.024 218.323C186.772 218.279 186.618 218.414 186.573 218.666L186.084 221.44C186.045 221.66 186.144 221.84 186.396 221.884L212.237 226.441C212.521 226.491 212.675 226.356 212.714 226.135L213.203 223.362C213.247 223.11 213.149 222.93 212.865 222.88L201.961 220.957ZM196.595 211.4C196.89 209.73 199.016 209.098 201.884 209.603C204.752 210.109 206.565 211.436 206.27 213.106C205.981 214.745 203.824 215.372 200.956 214.866C198.088 214.36 196.306 213.039 196.595 211.4ZM238.722 224.547C239.038 224.603 239.186 224.499 239.23 224.247L242.387 206.347C242.431 206.095 242.333 205.915 242.018 205.86L238.835 205.298C238.551 205.248 238.397 205.384 238.353 205.636L235.197 223.536C235.152 223.788 235.256 223.936 235.54 223.986L238.722 224.547ZM233.758 206.45C233.796 206.23 233.698 206.05 233.415 206L230.295 205.45C230.011 205.4 229.857 205.535 229.818 205.756L229.296 208.718L222.993 207.607L223.516 204.644C223.554 204.424 223.488 204.249 223.204 204.199L220.053 203.644C219.738 203.588 219.615 203.729 219.576 203.95L217.359 216.524C217.315 216.776 217.387 216.919 217.702 216.974L231.064 219.33C231.348 219.38 231.496 219.276 231.54 219.024L233.758 206.45ZM222.421 210.852L228.724 211.964L228.129 215.336L221.826 214.224L222.421 210.852ZM238.966 230.537C234.632 228.213 231.576 225.269 231.993 222.906L232.193 221.771C232.232 221.551 232.165 221.376 231.882 221.326L228.636 220.754C228.384 220.71 228.23 220.845 228.191 221.066L227.991 222.2C227.574 224.564 223.728 226.29 218.829 226.986C218.591 227.041 218.495 227.219 218.551 227.457L219.198 230.235C219.254 230.473 219.426 230.6 219.658 230.576C224.225 229.919 227.638 228.442 229.247 226.873C230.222 228.897 232.923 231.453 236.99 233.633C237.194 233.766 237.406 233.673 237.539 233.469L239.066 231.074C239.2 230.87 239.17 230.67 238.966 230.537ZM152.666 258.585C152.749 258.599 152.814 258.574 152.864 258.498L153.764 256.987L157.368 257.623L157.697 259.35C157.718 259.439 157.771 259.485 157.854 259.5L159.343 259.762C159.449 259.781 159.521 259.72 159.492 259.606L157.507 250.616C157.486 250.527 157.433 250.482 157.351 250.467L156.252 250.273C156.169 250.259 156.104 250.284 156.054 250.36L151.114 258.128C151.048 258.226 151.094 258.308 151.2 258.326L152.666 258.585ZM156.4 252.541L157.062 256.046L154.58 255.608L156.4 252.541ZM161.906 260.214C162.001 260.231 162.071 260.182 162.087 260.088L163.596 251.532C163.613 251.437 163.564 251.368 163.469 251.351L162.24 251.134C162.146 251.118 162.076 251.166 162.06 251.261L160.551 259.817C160.534 259.911 160.583 259.981 160.677 259.997L161.906 260.214ZM165.046 260.768C165.14 260.784 165.21 260.736 165.226 260.641L166.735 252.085C166.752 251.991 166.703 251.921 166.608 251.904L165.379 251.688C165.285 251.671 165.215 251.72 165.199 251.814L163.69 260.37C163.673 260.465 163.722 260.534 163.816 260.551L165.046 260.768ZM170.982 261.814C171.077 261.831 171.146 261.782 171.163 261.688L171.598 259.218L172.78 259.426C173.017 259.468 173.231 259.494 173.448 259.508L174.393 262.306C174.416 262.383 174.468 262.429 174.551 262.444L176.005 262.7C176.123 262.721 176.185 262.647 176.144 262.53L175.046 259.29C176.005 258.898 176.565 258.071 176.753 257.007C177.098 255.046 176.246 253.799 173.847 253.376L171.224 252.913C171.129 252.896 171.059 252.945 171.043 253.04L169.568 261.407C169.551 261.501 169.6 261.571 169.694 261.587L170.982 261.814ZM172.405 254.645L173.528 254.843C174.78 255.063 175.29 255.629 175.098 256.716C174.906 257.803 174.234 258.16 172.982 257.939L171.859 257.741L172.405 254.645ZM179.447 255.874C179.955 255.964 180.406 255.69 180.495 255.182C180.585 254.673 180.255 254.262 179.747 254.172C179.239 254.083 178.789 254.357 178.699 254.865C178.609 255.373 178.939 255.785 179.447 255.874ZM178.791 263.191C178.885 263.208 178.955 263.159 178.971 263.065L179.996 257.25C180.013 257.156 179.964 257.086 179.87 257.07L178.641 256.853C178.546 256.836 178.477 256.885 178.46 256.98L177.435 262.794C177.418 262.888 177.467 262.958 177.561 262.975L178.791 263.191ZM182.802 266.677C184.728 267.016 186.231 266.161 186.575 264.211L187.567 258.585C187.584 258.491 187.535 258.421 187.441 258.405L186.33 258.209C186.235 258.192 186.156 258.227 186.137 258.333L185.981 259.012C185.65 258.333 185.003 257.853 184.153 257.703C182.404 257.395 181.063 258.499 180.732 260.378C180.401 262.257 181.282 263.753 183.031 264.061C183.835 264.203 184.565 264.002 185.11 263.538L185.012 264.093C184.82 265.181 183.946 265.441 183 265.274C182.173 265.128 181.759 264.714 181.553 264.154C181.52 264.063 181.456 264.015 181.367 264.035L180.309 264.227C180.209 264.246 180.163 264.298 180.193 264.401C180.46 265.655 181.49 266.445 182.802 266.677ZM183.656 262.733C182.675 262.56 182.13 261.709 182.316 260.657C182.501 259.605 183.304 258.991 184.285 259.164C185.266 259.337 185.81 260.189 185.625 261.24C185.439 262.292 184.636 262.906 183.656 262.733ZM189.5 265.08C189.595 265.096 189.664 265.048 189.681 264.953L190.204 261.987C190.41 260.817 191.217 260.387 191.962 260.518C192.765 260.66 193.048 261.197 192.869 262.213L192.305 265.416C192.288 265.51 192.337 265.58 192.431 265.596L193.66 265.813C193.755 265.83 193.824 265.781 193.841 265.687L194.516 261.858C194.764 260.451 194.099 259.457 192.68 259.207C191.936 259.075 191.165 259.232 190.6 259.742L191.19 256.397C191.206 256.303 191.158 256.233 191.063 256.216L189.834 256C189.74 255.983 189.67 256.032 189.653 256.126L188.145 264.682C188.128 264.777 188.177 264.846 188.271 264.863L189.5 265.08ZM197.743 266.655C198.44 266.778 199.166 266.601 199.745 265.875C199.837 265.769 199.828 265.682 199.741 265.618L198.893 265.042C198.806 264.978 198.729 265.001 198.667 265.076C198.512 265.267 198.355 265.325 198.154 265.29C197.682 265.206 197.527 264.838 197.644 264.176L198.082 261.694L199.535 261.951C199.63 261.967 199.699 261.919 199.716 261.824L199.903 260.761C199.92 260.666 199.871 260.597 199.777 260.58L198.323 260.324L198.613 258.681C198.63 258.586 198.581 258.517 198.486 258.5L197.257 258.283C197.163 258.267 197.093 258.315 197.077 258.41L196.787 260.053L195.889 259.894C195.794 259.878 195.725 259.926 195.708 260.021L195.521 261.084C195.504 261.179 195.553 261.248 195.647 261.265L196.545 261.424L196.124 263.811C195.833 265.465 196.42 266.422 197.743 266.655ZM202.609 267.513C204.015 267.761 205.159 267.219 205.357 266.097C205.536 265.08 205.14 264.352 203.706 263.71L203.435 263.589C202.79 263.305 202.548 263.091 202.598 262.808C202.654 262.488 202.994 262.427 203.396 262.497C203.916 262.589 204.191 262.894 204.337 263.309C204.37 263.4 204.423 263.446 204.523 263.427L205.659 263.274C205.758 263.267 205.806 263.203 205.787 263.102C205.592 261.995 204.841 261.351 203.659 261.143C202.276 260.899 201.198 261.488 201.014 262.528C200.847 263.474 201.288 264.295 202.68 264.967L202.961 265.101C203.578 265.405 203.813 265.593 203.767 265.853C203.706 266.196 203.309 266.235 202.789 266.144C202.269 266.052 201.873 265.811 201.677 265.265C201.656 265.176 201.592 265.128 201.505 265.137L200.377 265.243C200.278 265.25 200.219 265.312 200.237 265.413C200.44 266.546 201.273 267.277 202.609 267.513ZM210.394 268.764C210.488 268.78 210.558 268.732 210.574 268.637L211.01 266.167L212.192 266.376C212.428 266.417 212.643 266.443 212.86 266.457L213.804 269.255C213.827 269.333 213.88 269.379 213.963 269.393L215.416 269.649C215.534 269.67 215.596 269.596 215.556 269.479L214.458 266.239C215.416 265.848 215.977 265.02 216.164 263.957C216.51 261.995 215.658 260.748 213.259 260.325L210.635 259.862C210.541 259.846 210.471 259.894 210.454 259.989L208.979 268.356C208.962 268.45 209.011 268.52 209.106 268.537L210.394 268.764ZM211.816 261.594L212.939 261.792C214.192 262.013 214.701 262.578 214.51 263.665C214.318 264.752 213.646 265.109 212.393 264.888L211.27 264.69L211.816 261.594ZM219.425 270.478C220.559 270.678 221.661 270.373 222.394 269.393C222.458 269.307 222.435 269.23 222.347 269.178L221.36 268.626C221.281 268.588 221.208 268.587 221.146 268.661C220.782 269.072 220.303 269.232 219.676 269.121C218.861 268.977 218.431 268.377 218.437 267.513L222.632 268.253C222.726 268.27 222.794 268.233 222.824 268.129C223.254 266.036 222.425 264.451 220.546 264.12C218.62 263.781 217.216 264.898 216.889 266.753C216.562 268.609 217.499 270.138 219.425 270.478ZM218.662 266.371C218.981 265.672 219.574 265.35 220.294 265.477C220.956 265.594 221.342 266.101 221.357 266.846L218.662 266.371ZM225.656 271.577C227.062 271.825 228.205 271.283 228.403 270.16C228.583 269.144 228.187 268.416 226.753 267.773L226.482 267.653C225.837 267.368 225.595 267.155 225.645 266.871C225.701 266.552 226.041 266.49 226.443 266.561C226.963 266.653 227.238 266.957 227.384 267.373C227.417 267.464 227.469 267.51 227.57 267.491L228.706 267.338C228.805 267.331 228.853 267.266 228.834 267.166C228.639 266.059 227.888 265.415 226.706 265.206C225.323 264.963 224.244 265.552 224.061 266.592C223.894 267.538 224.334 268.358 225.727 269.03L226.008 269.165C226.624 269.469 226.859 269.657 226.814 269.917C226.753 270.259 226.356 270.299 225.836 270.207C225.316 270.116 224.92 269.875 224.724 269.329C224.703 269.24 224.638 269.192 224.551 269.201L223.424 269.307C223.325 269.314 223.265 269.376 223.284 269.477C223.487 270.609 224.32 271.341 225.656 271.577ZM231.981 272.692C233.116 272.892 234.217 272.587 234.951 271.607C235.015 271.521 234.992 271.444 234.903 271.392L233.916 270.84C233.838 270.802 233.765 270.801 233.703 270.875C233.338 271.286 232.859 271.446 232.233 271.335C231.417 271.191 230.987 270.592 230.993 269.727L235.188 270.467C235.283 270.484 235.35 270.447 235.381 270.343C235.811 268.25 234.981 266.665 233.102 266.334C231.176 265.995 229.773 267.112 229.445 268.967C229.118 270.823 230.055 272.352 231.981 272.692ZM231.219 268.585C231.537 267.886 232.13 267.564 232.851 267.691C233.513 267.808 233.898 268.315 233.913 269.06L231.219 268.585ZM237.417 273.529C237.512 273.545 237.581 273.497 237.598 273.402L238.129 270.389C238.3 269.42 239.18 268.99 240.008 269.136C240.244 269.178 240.415 269.244 240.566 269.283C240.671 269.314 240.736 269.289 240.755 269.182L240.969 267.965C240.984 267.882 240.959 267.817 240.869 267.777C240.755 267.732 240.639 267.7 240.461 267.668C239.729 267.539 238.947 267.755 238.417 268.344L238.517 267.569C238.536 267.463 238.473 267.403 238.379 267.386L237.268 267.191C237.173 267.174 237.104 267.223 237.087 267.317L236.062 273.131C236.045 273.226 236.094 273.295 236.188 273.312L237.417 273.529ZM243.976 274.685C244.059 274.7 244.127 274.663 244.174 274.598L247.813 269.233C247.88 269.135 247.845 269.056 247.727 269.035L246.356 268.793C246.273 268.778 246.208 268.803 246.158 268.88L244.036 272.344L243.227 268.363C243.206 268.274 243.153 268.228 243.07 268.214L241.605 267.955C241.487 267.934 241.427 267.997 241.456 268.112L243.04 274.398C243.063 274.476 243.114 274.533 243.196 274.548L243.976 274.685ZM250.25 275.913C251.385 276.113 252.486 275.808 253.22 274.829C253.284 274.742 253.261 274.665 253.172 274.613L252.185 274.061C252.107 274.023 252.034 274.022 251.972 274.097C251.607 274.508 251.128 274.667 250.502 274.556C249.686 274.413 249.256 273.813 249.262 272.949L253.457 273.688C253.552 273.705 253.619 273.668 253.65 273.564C254.08 271.471 253.25 269.887 251.371 269.555C249.445 269.216 248.042 270.333 247.714 272.188C247.387 274.044 248.324 275.574 250.25 275.913ZM249.488 271.807C249.806 271.107 250.399 270.785 251.12 270.912C251.782 271.029 252.167 271.536 252.182 272.282L249.488 271.807ZM256.788 277.066C257.639 277.216 258.411 276.987 258.954 276.461L258.869 277.153C258.85 277.259 258.913 277.319 259.007 277.336L260.118 277.532C260.212 277.548 260.282 277.5 260.299 277.405L261.807 268.849C261.824 268.754 261.775 268.685 261.681 268.668L260.452 268.452C260.357 268.435 260.288 268.484 260.271 268.578L259.683 271.911C259.33 271.288 258.713 270.85 257.909 270.708C256.16 270.4 254.82 271.504 254.489 273.383C254.157 275.262 255.039 276.758 256.788 277.066ZM257.412 275.738C256.431 275.565 255.887 274.714 256.072 273.662C256.258 272.61 257.061 271.997 258.042 272.169C259.022 272.342 259.567 273.194 259.381 274.246C259.196 275.297 258.393 275.911 257.412 275.738Z" fill="black"/>
</g>
<defs>
<filter id="filter0_d_1360_209" x="0.154297" y="0.154297" width="431.691" height="425.639" filterUnits="userSpaceOnUse" color-interpolation-filters="sRGB">
<feFlood flood-opacity="0" result="BackgroundImageFix"/>
<feColorMatrix in="SourceAlpha" type="matrix" values="0 0 0 0 0 0 0 0 0 0 0 0 0 0 0 0 0 0 127 0" result="hardAlpha"/>
<feOffset dy="4"/>
<feGaussianBlur stdDeviation="50"/>
<feComposite in2="hardAlpha" operator="out"/>
<feColorMatrix type="matrix" values="0 0 0 0 0 0 0 0 0 0 0 0 0 0 0 0 0 0 1 0"/>
<feBlend mode="normal" in2="BackgroundImageFix" result="effect1_dropShadow_1360_209"/>
<feBlend mode="normal" in="SourceGraphic" in2="effect1_dropShadow_1360_209" result="shape"/>
</filter>
</defs>
</svg>
