<svg width="90" height="60" viewBox="0 0 90 60" fill="none" xmlns="http://www.w3.org/2000/svg">
<path fill-rule="evenodd" clip-rule="evenodd" d="M53.2849 2.96777H36.3896V2.97016V20.1128V60L36.39 60H73.1045V60.001H89.9998V40.2222H90V25.0576H81.5525V2.96818H64.6572V2.97015L53.2849 2.97016V2.96777ZM53.2849 20.1128V25.0576H64.6572V20.1128L53.2849 20.1128ZM53.2849 40.2222V44.8354L73.1045 44.8354V40.2222H53.2849Z" fill="#9C2054"/>
<g filter="url(#filter0_b_1357_105)">
<path fill-rule="evenodd" clip-rule="evenodd" d="M2.92383 2.96777H19.8191V32.6392L36.3896 32.6392V2.96777H53.2849V32.6392H53.2852V47.8039H53.2849V60H36.3896V47.8039L19.8191 47.8039V60H2.92383V2.96777Z" fill="#E44782" fill-opacity="0.5"/>
</g>
<path fill-rule="evenodd" clip-rule="evenodd" d="M19.8191 2.96777H2.92383V60H19.8191V47.8039H36.3896V32.6392H19.8191V2.96777Z" fill="#9B097B"/>
<path fill-rule="evenodd" clip-rule="evenodd" d="M78.6285 0H61.7332V0.00197356L50.3611 0.00197608V0H33.4658V0.00197983H33.4658V17.1446H33.4658V57.0323H50.3611V57.0319H70.1807V57.0328H87.0759V37.2511H87.0762V22.0864H78.6285V0ZM50.3611 41.8672L70.1807 41.8672V37.2511L50.3611 37.2511V41.8672ZM50.3611 22.0864H61.7332V17.1446L50.3611 17.1446V22.0864Z" fill="#642EFE"/>
<g filter="url(#filter1_b_1357_105)">
<path fill-rule="evenodd" clip-rule="evenodd" d="M0 0H16.8953V29.6714L33.4658 29.6714V0H50.3611V29.6714H50.3613V44.8361H50.3611V57.0323H33.4658V44.8361H16.8953V57.0323H0V0Z" fill="#FA8EB6" fill-opacity="0.5"/>
</g>
<path fill-rule="evenodd" clip-rule="evenodd" d="M16.8953 0H0V57.0323H16.8953V44.8361H33.4658V29.6714H16.8953V0Z" fill="#FF81AF"/>
<defs>
<filter id="filter0_b_1357_105" x="-0.0761719" y="-0.0322266" width="56.3613" height="63.0322" filterUnits="userSpaceOnUse" color-interpolation-filters="sRGB">
<feFlood flood-opacity="0" result="BackgroundImageFix"/>
<feGaussianBlur in="BackgroundImageFix" stdDeviation="1.5"/>
<feComposite in2="SourceAlpha" operator="in" result="effect1_backgroundBlur_1357_105"/>
<feBlend mode="normal" in="SourceGraphic" in2="effect1_backgroundBlur_1357_105" result="shape"/>
</filter>
<filter id="filter1_b_1357_105" x="-3" y="-3" width="56.3613" height="63.0322" filterUnits="userSpaceOnUse" color-interpolation-filters="sRGB">
<feFlood flood-opacity="0" result="BackgroundImageFix"/>
<feGaussianBlur in="BackgroundImageFix" stdDeviation="1.5"/>
<feComposite in2="SourceAlpha" operator="in" result="effect1_backgroundBlur_1357_105"/>
<feBlend mode="normal" in="SourceGraphic" in2="effect1_backgroundBlur_1357_105" result="shape"/>
</filter>
</defs>
</svg>
